<?xml version="1.0" encoding="utf-8" standalone="no"?>
<!DOCTYPE svg PUBLIC "-//W3C//DTD SVG 1.1//EN"
  "http://www.w3.org/Graphics/SVG/1.1/DTD/svg11.dtd">
<svg xmlns:xlink="http://www.w3.org/1999/xlink" width="491.118946pt" height="350.889687pt" viewBox="0 0 491.118946 350.889687" xmlns="http://www.w3.org/2000/svg" version="1.1">
 <metadata>
  <rdf:RDF xmlns:dc="http://purl.org/dc/elements/1.1/" xmlns:cc="http://creativecommons.org/ns#" xmlns:rdf="http://www.w3.org/1999/02/22-rdf-syntax-ns#">
   <cc:Work>
    <dc:type rdf:resource="http://purl.org/dc/dcmitype/StillImage"/>
    <dc:date>2025-05-22T18:51:36.813136</dc:date>
    <dc:format>image/svg+xml</dc:format>
    <dc:creator>
     <cc:Agent>
      <dc:title>Matplotlib v3.10.0, https://matplotlib.org/</dc:title>
     </cc:Agent>
    </dc:creator>
   </cc:Work>
  </rdf:RDF>
 </metadata>
 <defs>
  <style type="text/css">*{stroke-linejoin: round; stroke-linecap: butt}</style>
 </defs>
 <g id="figure_1">
  <g id="patch_1">
   <path d="M 0 350.889687 
L 491.118946 350.889687 
L 491.118946 0 
L 0 0 
z
" style="fill: #ffffff"/>
  </g>
  <g id="axes_1">
   <g id="patch_2">
    <path d="M 51.28 314.897812 
L 483.918946 314.897812 
L 483.918946 23.837812 
L 51.28 23.837812 
z
" style="fill: #ffffff"/>
   </g>
   <g id="matplotlib.axis_1">
    <g id="xtick_1">
     <g id="line2d_1">
      <path d="M 70.945407 314.897812 
L 70.945407 23.837812 
" clip-path="url(#p89eacac7a6)" style="fill: none; stroke-dasharray: 2.96,1.28; stroke-dashoffset: 0; stroke: #cccccc; stroke-opacity: 0.7; stroke-width: 0.8"/>
     </g>
     <g id="line2d_2"/>
     <g id="text_1">
      <!-- 0.0 -->
      <g style="fill: #262626" transform="translate(62.993844 325.99625) scale(0.1 -0.1)">
       <defs>
        <path id="DejaVuSans-30" d="M 2034 4250 
Q 1547 4250 1301 3770 
Q 1056 3291 1056 2328 
Q 1056 1369 1301 889 
Q 1547 409 2034 409 
Q 2525 409 2770 889 
Q 3016 1369 3016 2328 
Q 3016 3291 2770 3770 
Q 2525 4250 2034 4250 
z
M 2034 4750 
Q 2819 4750 3233 4129 
Q 3647 3509 3647 2328 
Q 3647 1150 3233 529 
Q 2819 -91 2034 -91 
Q 1250 -91 836 529 
Q 422 1150 422 2328 
Q 422 3509 836 4129 
Q 1250 4750 2034 4750 
z
" transform="scale(0.015625)"/>
        <path id="DejaVuSans-2e" d="M 684 794 
L 1344 794 
L 1344 0 
L 684 0 
L 684 794 
z
" transform="scale(0.015625)"/>
       </defs>
       <use xlink:href="#DejaVuSans-30"/>
       <use xlink:href="#DejaVuSans-2e" transform="translate(63.623047 0)"/>
       <use xlink:href="#DejaVuSans-30" transform="translate(95.410156 0)"/>
      </g>
     </g>
    </g>
    <g id="xtick_2">
     <g id="line2d_3">
      <path d="M 149.607033 314.897812 
L 149.607033 23.837812 
" clip-path="url(#p89eacac7a6)" style="fill: none; stroke-dasharray: 2.96,1.28; stroke-dashoffset: 0; stroke: #cccccc; stroke-opacity: 0.7; stroke-width: 0.8"/>
     </g>
     <g id="line2d_4"/>
     <g id="text_2">
      <!-- 0.2 -->
      <g style="fill: #262626" transform="translate(141.655471 325.99625) scale(0.1 -0.1)">
       <defs>
        <path id="DejaVuSans-32" d="M 1228 531 
L 3431 531 
L 3431 0 
L 469 0 
L 469 531 
Q 828 903 1448 1529 
Q 2069 2156 2228 2338 
Q 2531 2678 2651 2914 
Q 2772 3150 2772 3378 
Q 2772 3750 2511 3984 
Q 2250 4219 1831 4219 
Q 1534 4219 1204 4116 
Q 875 4013 500 3803 
L 500 4441 
Q 881 4594 1212 4672 
Q 1544 4750 1819 4750 
Q 2544 4750 2975 4387 
Q 3406 4025 3406 3419 
Q 3406 3131 3298 2873 
Q 3191 2616 2906 2266 
Q 2828 2175 2409 1742 
Q 1991 1309 1228 531 
z
" transform="scale(0.015625)"/>
       </defs>
       <use xlink:href="#DejaVuSans-30"/>
       <use xlink:href="#DejaVuSans-2e" transform="translate(63.623047 0)"/>
       <use xlink:href="#DejaVuSans-32" transform="translate(95.410156 0)"/>
      </g>
     </g>
    </g>
    <g id="xtick_3">
     <g id="line2d_5">
      <path d="M 228.26866 314.897812 
L 228.26866 23.837812 
" clip-path="url(#p89eacac7a6)" style="fill: none; stroke-dasharray: 2.96,1.28; stroke-dashoffset: 0; stroke: #cccccc; stroke-opacity: 0.7; stroke-width: 0.8"/>
     </g>
     <g id="line2d_6"/>
     <g id="text_3">
      <!-- 0.4 -->
      <g style="fill: #262626" transform="translate(220.317097 325.99625) scale(0.1 -0.1)">
       <defs>
        <path id="DejaVuSans-34" d="M 2419 4116 
L 825 1625 
L 2419 1625 
L 2419 4116 
z
M 2253 4666 
L 3047 4666 
L 3047 1625 
L 3713 1625 
L 3713 1100 
L 3047 1100 
L 3047 0 
L 2419 0 
L 2419 1100 
L 313 1100 
L 313 1709 
L 2253 4666 
z
" transform="scale(0.015625)"/>
       </defs>
       <use xlink:href="#DejaVuSans-30"/>
       <use xlink:href="#DejaVuSans-2e" transform="translate(63.623047 0)"/>
       <use xlink:href="#DejaVuSans-34" transform="translate(95.410156 0)"/>
      </g>
     </g>
    </g>
    <g id="xtick_4">
     <g id="line2d_7">
      <path d="M 306.930286 314.897812 
L 306.930286 23.837812 
" clip-path="url(#p89eacac7a6)" style="fill: none; stroke-dasharray: 2.96,1.28; stroke-dashoffset: 0; stroke: #cccccc; stroke-opacity: 0.7; stroke-width: 0.8"/>
     </g>
     <g id="line2d_8"/>
     <g id="text_4">
      <!-- 0.6 -->
      <g style="fill: #262626" transform="translate(298.978724 325.99625) scale(0.1 -0.1)">
       <defs>
        <path id="DejaVuSans-36" d="M 2113 2584 
Q 1688 2584 1439 2293 
Q 1191 2003 1191 1497 
Q 1191 994 1439 701 
Q 1688 409 2113 409 
Q 2538 409 2786 701 
Q 3034 994 3034 1497 
Q 3034 2003 2786 2293 
Q 2538 2584 2113 2584 
z
M 3366 4563 
L 3366 3988 
Q 3128 4100 2886 4159 
Q 2644 4219 2406 4219 
Q 1781 4219 1451 3797 
Q 1122 3375 1075 2522 
Q 1259 2794 1537 2939 
Q 1816 3084 2150 3084 
Q 2853 3084 3261 2657 
Q 3669 2231 3669 1497 
Q 3669 778 3244 343 
Q 2819 -91 2113 -91 
Q 1303 -91 875 529 
Q 447 1150 447 2328 
Q 447 3434 972 4092 
Q 1497 4750 2381 4750 
Q 2619 4750 2861 4703 
Q 3103 4656 3366 4563 
z
" transform="scale(0.015625)"/>
       </defs>
       <use xlink:href="#DejaVuSans-30"/>
       <use xlink:href="#DejaVuSans-2e" transform="translate(63.623047 0)"/>
       <use xlink:href="#DejaVuSans-36" transform="translate(95.410156 0)"/>
      </g>
     </g>
    </g>
    <g id="xtick_5">
     <g id="line2d_9">
      <path d="M 385.591913 314.897812 
L 385.591913 23.837812 
" clip-path="url(#p89eacac7a6)" style="fill: none; stroke-dasharray: 2.96,1.28; stroke-dashoffset: 0; stroke: #cccccc; stroke-opacity: 0.7; stroke-width: 0.8"/>
     </g>
     <g id="line2d_10"/>
     <g id="text_5">
      <!-- 0.8 -->
      <g style="fill: #262626" transform="translate(377.64035 325.99625) scale(0.1 -0.1)">
       <defs>
        <path id="DejaVuSans-38" d="M 2034 2216 
Q 1584 2216 1326 1975 
Q 1069 1734 1069 1313 
Q 1069 891 1326 650 
Q 1584 409 2034 409 
Q 2484 409 2743 651 
Q 3003 894 3003 1313 
Q 3003 1734 2745 1975 
Q 2488 2216 2034 2216 
z
M 1403 2484 
Q 997 2584 770 2862 
Q 544 3141 544 3541 
Q 544 4100 942 4425 
Q 1341 4750 2034 4750 
Q 2731 4750 3128 4425 
Q 3525 4100 3525 3541 
Q 3525 3141 3298 2862 
Q 3072 2584 2669 2484 
Q 3125 2378 3379 2068 
Q 3634 1759 3634 1313 
Q 3634 634 3220 271 
Q 2806 -91 2034 -91 
Q 1263 -91 848 271 
Q 434 634 434 1313 
Q 434 1759 690 2068 
Q 947 2378 1403 2484 
z
M 1172 3481 
Q 1172 3119 1398 2916 
Q 1625 2713 2034 2713 
Q 2441 2713 2670 2916 
Q 2900 3119 2900 3481 
Q 2900 3844 2670 4047 
Q 2441 4250 2034 4250 
Q 1625 4250 1398 4047 
Q 1172 3844 1172 3481 
z
" transform="scale(0.015625)"/>
       </defs>
       <use xlink:href="#DejaVuSans-30"/>
       <use xlink:href="#DejaVuSans-2e" transform="translate(63.623047 0)"/>
       <use xlink:href="#DejaVuSans-38" transform="translate(95.410156 0)"/>
      </g>
     </g>
    </g>
    <g id="xtick_6">
     <g id="line2d_11">
      <path d="M 464.253539 314.897812 
L 464.253539 23.837812 
" clip-path="url(#p89eacac7a6)" style="fill: none; stroke-dasharray: 2.96,1.28; stroke-dashoffset: 0; stroke: #cccccc; stroke-opacity: 0.7; stroke-width: 0.8"/>
     </g>
     <g id="line2d_12"/>
     <g id="text_6">
      <!-- 1.0 -->
      <g style="fill: #262626" transform="translate(456.301977 325.99625) scale(0.1 -0.1)">
       <defs>
        <path id="DejaVuSans-31" d="M 794 531 
L 1825 531 
L 1825 4091 
L 703 3866 
L 703 4441 
L 1819 4666 
L 2450 4666 
L 2450 531 
L 3481 531 
L 3481 0 
L 794 0 
L 794 531 
z
" transform="scale(0.015625)"/>
       </defs>
       <use xlink:href="#DejaVuSans-31"/>
       <use xlink:href="#DejaVuSans-2e" transform="translate(63.623047 0)"/>
       <use xlink:href="#DejaVuSans-30" transform="translate(95.410156 0)"/>
      </g>
     </g>
    </g>
    <g id="text_7">
     <!-- $x$ -->
     <g style="fill: #262626" transform="translate(263.999473 341.194062) scale(0.12 -0.12)">
      <defs>
       <path id="DejaVuSans-Oblique-78" d="M 3841 3500 
L 2234 1784 
L 3219 0 
L 2559 0 
L 1819 1388 
L 531 0 
L -166 0 
L 1556 1844 
L 641 3500 
L 1300 3500 
L 1972 2234 
L 3144 3500 
L 3841 3500 
z
" transform="scale(0.015625)"/>
      </defs>
      <use xlink:href="#DejaVuSans-Oblique-78" transform="translate(0 0.3125)"/>
     </g>
    </g>
   </g>
   <g id="matplotlib.axis_2">
    <g id="ytick_1">
     <g id="line2d_13">
      <path d="M 51.28 314.227351 
L 483.918946 314.227351 
" clip-path="url(#p89eacac7a6)" style="fill: none; stroke-dasharray: 2.96,1.28; stroke-dashoffset: 0; stroke: #cccccc; stroke-opacity: 0.7; stroke-width: 0.8"/>
     </g>
     <g id="line2d_14"/>
     <g id="text_8">
      <!-- $\mathdefault{10^{-4}}$ -->
      <g style="fill: #262626" transform="translate(24.28 318.026569) scale(0.1 -0.1)">
       <defs>
        <path id="DejaVuSans-2212" d="M 678 2272 
L 4684 2272 
L 4684 1741 
L 678 1741 
L 678 2272 
z
" transform="scale(0.015625)"/>
       </defs>
       <use xlink:href="#DejaVuSans-31" transform="translate(0 0.684375)"/>
       <use xlink:href="#DejaVuSans-30" transform="translate(63.623047 0.684375)"/>
       <use xlink:href="#DejaVuSans-2212" transform="translate(128.203125 38.965625) scale(0.7)"/>
       <use xlink:href="#DejaVuSans-34" transform="translate(186.855469 38.965625) scale(0.7)"/>
      </g>
     </g>
    </g>
    <g id="ytick_2">
     <g id="line2d_15">
      <path d="M 51.28 240.38752 
L 483.918946 240.38752 
" clip-path="url(#p89eacac7a6)" style="fill: none; stroke-dasharray: 2.96,1.28; stroke-dashoffset: 0; stroke: #cccccc; stroke-opacity: 0.7; stroke-width: 0.8"/>
     </g>
     <g id="line2d_16"/>
     <g id="text_9">
      <!-- $\mathdefault{10^{-3}}$ -->
      <g style="fill: #262626" transform="translate(24.28 244.186739) scale(0.1 -0.1)">
       <defs>
        <path id="DejaVuSans-33" d="M 2597 2516 
Q 3050 2419 3304 2112 
Q 3559 1806 3559 1356 
Q 3559 666 3084 287 
Q 2609 -91 1734 -91 
Q 1441 -91 1130 -33 
Q 819 25 488 141 
L 488 750 
Q 750 597 1062 519 
Q 1375 441 1716 441 
Q 2309 441 2620 675 
Q 2931 909 2931 1356 
Q 2931 1769 2642 2001 
Q 2353 2234 1838 2234 
L 1294 2234 
L 1294 2753 
L 1863 2753 
Q 2328 2753 2575 2939 
Q 2822 3125 2822 3475 
Q 2822 3834 2567 4026 
Q 2313 4219 1838 4219 
Q 1578 4219 1281 4162 
Q 984 4106 628 3988 
L 628 4550 
Q 988 4650 1302 4700 
Q 1616 4750 1894 4750 
Q 2613 4750 3031 4423 
Q 3450 4097 3450 3541 
Q 3450 3153 3228 2886 
Q 3006 2619 2597 2516 
z
" transform="scale(0.015625)"/>
       </defs>
       <use xlink:href="#DejaVuSans-31" transform="translate(0 0.765625)"/>
       <use xlink:href="#DejaVuSans-30" transform="translate(63.623047 0.765625)"/>
       <use xlink:href="#DejaVuSans-2212" transform="translate(128.203125 39.046875) scale(0.7)"/>
       <use xlink:href="#DejaVuSans-33" transform="translate(186.855469 39.046875) scale(0.7)"/>
      </g>
     </g>
    </g>
    <g id="ytick_3">
     <g id="line2d_17">
      <path d="M 51.28 166.547689 
L 483.918946 166.547689 
" clip-path="url(#p89eacac7a6)" style="fill: none; stroke-dasharray: 2.96,1.28; stroke-dashoffset: 0; stroke: #cccccc; stroke-opacity: 0.7; stroke-width: 0.8"/>
     </g>
     <g id="line2d_18"/>
     <g id="text_10">
      <!-- $\mathdefault{10^{-2}}$ -->
      <g style="fill: #262626" transform="translate(24.28 170.346908) scale(0.1 -0.1)">
       <use xlink:href="#DejaVuSans-31" transform="translate(0 0.765625)"/>
       <use xlink:href="#DejaVuSans-30" transform="translate(63.623047 0.765625)"/>
       <use xlink:href="#DejaVuSans-2212" transform="translate(128.203125 39.046875) scale(0.7)"/>
       <use xlink:href="#DejaVuSans-32" transform="translate(186.855469 39.046875) scale(0.7)"/>
      </g>
     </g>
    </g>
    <g id="ytick_4">
     <g id="line2d_19">
      <path d="M 51.28 92.707858 
L 483.918946 92.707858 
" clip-path="url(#p89eacac7a6)" style="fill: none; stroke-dasharray: 2.96,1.28; stroke-dashoffset: 0; stroke: #cccccc; stroke-opacity: 0.7; stroke-width: 0.8"/>
     </g>
     <g id="line2d_20"/>
     <g id="text_11">
      <!-- $\mathdefault{10^{-1}}$ -->
      <g style="fill: #262626" transform="translate(24.28 96.507077) scale(0.1 -0.1)">
       <use xlink:href="#DejaVuSans-31" transform="translate(0 0.684375)"/>
       <use xlink:href="#DejaVuSans-30" transform="translate(63.623047 0.684375)"/>
       <use xlink:href="#DejaVuSans-2212" transform="translate(128.203125 38.965625) scale(0.7)"/>
       <use xlink:href="#DejaVuSans-31" transform="translate(186.855469 38.965625) scale(0.7)"/>
      </g>
     </g>
    </g>
    <g id="ytick_5">
     <g id="line2d_21"/>
    </g>
    <g id="ytick_6">
     <g id="line2d_22"/>
    </g>
    <g id="ytick_7">
     <g id="line2d_23"/>
    </g>
    <g id="ytick_8">
     <g id="line2d_24"/>
    </g>
    <g id="ytick_9">
     <g id="line2d_25"/>
    </g>
    <g id="ytick_10">
     <g id="line2d_26"/>
    </g>
    <g id="ytick_11">
     <g id="line2d_27"/>
    </g>
    <g id="ytick_12">
     <g id="line2d_28"/>
    </g>
    <g id="ytick_13">
     <g id="line2d_29"/>
    </g>
    <g id="ytick_14">
     <g id="line2d_30"/>
    </g>
    <g id="ytick_15">
     <g id="line2d_31"/>
    </g>
    <g id="ytick_16">
     <g id="line2d_32"/>
    </g>
    <g id="ytick_17">
     <g id="line2d_33"/>
    </g>
    <g id="ytick_18">
     <g id="line2d_34"/>
    </g>
    <g id="ytick_19">
     <g id="line2d_35"/>
    </g>
    <g id="ytick_20">
     <g id="line2d_36"/>
    </g>
    <g id="ytick_21">
     <g id="line2d_37"/>
    </g>
    <g id="ytick_22">
     <g id="line2d_38"/>
    </g>
    <g id="ytick_23">
     <g id="line2d_39"/>
    </g>
    <g id="ytick_24">
     <g id="line2d_40"/>
    </g>
    <g id="ytick_25">
     <g id="line2d_41"/>
    </g>
    <g id="ytick_26">
     <g id="line2d_42"/>
    </g>
    <g id="ytick_27">
     <g id="line2d_43"/>
    </g>
    <g id="ytick_28">
     <g id="line2d_44"/>
    </g>
    <g id="ytick_29">
     <g id="line2d_45"/>
    </g>
    <g id="ytick_30">
     <g id="line2d_46"/>
    </g>
    <g id="ytick_31">
     <g id="line2d_47"/>
    </g>
    <g id="ytick_32">
     <g id="line2d_48"/>
    </g>
    <g id="ytick_33">
     <g id="line2d_49"/>
    </g>
    <g id="ytick_34">
     <g id="line2d_50"/>
    </g>
    <g id="ytick_35">
     <g id="line2d_51"/>
    </g>
    <g id="text_12">
     <!-- $|u'_{exact}(x) - u'_{approx}(x)|$ -->
     <g style="fill: #262626" transform="translate(16.56 234.767812) rotate(-90) scale(0.12 -0.12)">
      <defs>
       <path id="DejaVuSans-7c" d="M 1344 4891 
L 1344 -1509 
L 813 -1509 
L 813 4891 
L 1344 4891 
z
" transform="scale(0.015625)"/>
       <path id="DejaVuSans-Oblique-75" d="M 428 1388 
L 838 3500 
L 1416 3500 
L 1006 1409 
Q 975 1256 961 1147 
Q 947 1038 947 966 
Q 947 700 1109 554 
Q 1272 409 1569 409 
Q 2031 409 2368 721 
Q 2706 1034 2809 1563 
L 3194 3500 
L 3769 3500 
L 3091 0 
L 2516 0 
L 2631 550 
Q 2388 244 2052 76 
Q 1716 -91 1338 -91 
Q 878 -91 622 161 
Q 366 413 366 863 
Q 366 956 381 1097 
Q 397 1238 428 1388 
z
" transform="scale(0.015625)"/>
       <path id="Cmsy10-30" d="M 225 347 
Q 184 359 184 409 
L 966 3316 
Q 1003 3434 1093 3506 
Q 1184 3578 1300 3578 
Q 1450 3578 1564 3479 
Q 1678 3381 1678 3231 
Q 1678 3166 1644 3084 
L 488 319 
Q 466 275 428 275 
Q 394 275 320 306 
Q 247 338 225 347 
z
" transform="scale(0.015625)"/>
       <path id="DejaVuSans-Oblique-65" d="M 3078 2063 
Q 3088 2113 3092 2166 
Q 3097 2219 3097 2272 
Q 3097 2653 2873 2875 
Q 2650 3097 2266 3097 
Q 1838 3097 1509 2826 
Q 1181 2556 1013 2059 
L 3078 2063 
z
M 3578 1613 
L 903 1613 
Q 884 1494 878 1425 
Q 872 1356 872 1306 
Q 872 872 1139 634 
Q 1406 397 1894 397 
Q 2269 397 2603 481 
Q 2938 566 3225 728 
L 3116 159 
Q 2806 34 2476 -28 
Q 2147 -91 1806 -91 
Q 1078 -91 686 257 
Q 294 606 294 1247 
Q 294 1794 489 2264 
Q 684 2734 1063 3103 
Q 1306 3334 1642 3459 
Q 1978 3584 2356 3584 
Q 2950 3584 3301 3228 
Q 3653 2872 3653 2272 
Q 3653 2128 3634 1964 
Q 3616 1800 3578 1613 
z
" transform="scale(0.015625)"/>
       <path id="DejaVuSans-Oblique-61" d="M 3438 1997 
L 3047 0 
L 2472 0 
L 2578 531 
Q 2325 219 2001 64 
Q 1678 -91 1281 -91 
Q 834 -91 548 182 
Q 263 456 263 884 
Q 263 1497 752 1853 
Q 1241 2209 2100 2209 
L 2900 2209 
L 2931 2363 
Q 2938 2388 2941 2417 
Q 2944 2447 2944 2509 
Q 2944 2788 2717 2942 
Q 2491 3097 2081 3097 
Q 1800 3097 1504 3025 
Q 1209 2953 897 2809 
L 997 3341 
Q 1322 3463 1633 3523 
Q 1944 3584 2234 3584 
Q 2853 3584 3176 3315 
Q 3500 3047 3500 2534 
Q 3500 2431 3484 2292 
Q 3469 2153 3438 1997 
z
M 2816 1759 
L 2241 1759 
Q 1534 1759 1195 1570 
Q 856 1381 856 984 
Q 856 709 1029 553 
Q 1203 397 1509 397 
Q 1978 397 2328 733 
Q 2678 1069 2791 1631 
L 2816 1759 
z
" transform="scale(0.015625)"/>
       <path id="DejaVuSans-Oblique-63" d="M 3431 3366 
L 3316 2797 
Q 3109 2947 2876 3022 
Q 2644 3097 2394 3097 
Q 2119 3097 1870 3000 
Q 1622 2903 1453 2725 
Q 1184 2453 1037 2087 
Q 891 1722 891 1331 
Q 891 859 1127 628 
Q 1363 397 1844 397 
Q 2081 397 2348 469 
Q 2616 541 2906 684 
L 2797 116 
Q 2547 13 2283 -39 
Q 2019 -91 1741 -91 
Q 1044 -91 669 257 
Q 294 606 294 1253 
Q 294 1797 489 2255 
Q 684 2713 1069 3078 
Q 1331 3328 1684 3456 
Q 2038 3584 2456 3584 
Q 2700 3584 2940 3529 
Q 3181 3475 3431 3366 
z
" transform="scale(0.015625)"/>
       <path id="DejaVuSans-Oblique-74" d="M 2706 3500 
L 2619 3053 
L 1472 3053 
L 1100 1153 
Q 1081 1047 1072 975 
Q 1063 903 1063 863 
Q 1063 663 1183 572 
Q 1303 481 1569 481 
L 2150 481 
L 2053 0 
L 1503 0 
Q 991 0 739 200 
Q 488 400 488 806 
Q 488 878 497 964 
Q 506 1050 525 1153 
L 897 3053 
L 409 3053 
L 500 3500 
L 978 3500 
L 1172 4494 
L 1747 4494 
L 1556 3500 
L 2706 3500 
z
" transform="scale(0.015625)"/>
       <path id="DejaVuSans-28" d="M 1984 4856 
Q 1566 4138 1362 3434 
Q 1159 2731 1159 2009 
Q 1159 1288 1364 580 
Q 1569 -128 1984 -844 
L 1484 -844 
Q 1016 -109 783 600 
Q 550 1309 550 2009 
Q 550 2706 781 3412 
Q 1013 4119 1484 4856 
L 1984 4856 
z
" transform="scale(0.015625)"/>
       <path id="DejaVuSans-29" d="M 513 4856 
L 1013 4856 
Q 1481 4119 1714 3412 
Q 1947 2706 1947 2009 
Q 1947 1309 1714 600 
Q 1481 -109 1013 -844 
L 513 -844 
Q 928 -128 1133 580 
Q 1338 1288 1338 2009 
Q 1338 2731 1133 3434 
Q 928 4138 513 4856 
z
" transform="scale(0.015625)"/>
       <path id="DejaVuSans-Oblique-70" d="M 3175 2156 
Q 3175 2616 2975 2859 
Q 2775 3103 2400 3103 
Q 2144 3103 1911 2972 
Q 1678 2841 1497 2591 
Q 1319 2344 1212 1994 
Q 1106 1644 1106 1300 
Q 1106 863 1306 627 
Q 1506 391 1875 391 
Q 2147 391 2380 519 
Q 2613 647 2778 891 
Q 2956 1147 3065 1494 
Q 3175 1841 3175 2156 
z
M 1394 2969 
Q 1625 3272 1939 3428 
Q 2253 3584 2638 3584 
Q 3175 3584 3472 3232 
Q 3769 2881 3769 2247 
Q 3769 1728 3584 1258 
Q 3400 788 3053 416 
Q 2822 169 2531 39 
Q 2241 -91 1919 -91 
Q 1547 -91 1294 64 
Q 1041 219 916 525 
L 556 -1331 
L -19 -1331 
L 922 3500 
L 1497 3500 
L 1394 2969 
z
" transform="scale(0.015625)"/>
       <path id="DejaVuSans-Oblique-72" d="M 2853 2969 
Q 2766 3016 2653 3041 
Q 2541 3066 2413 3066 
Q 1953 3066 1609 2717 
Q 1266 2369 1153 1784 
L 800 0 
L 225 0 
L 909 3500 
L 1484 3500 
L 1375 2956 
Q 1603 3259 1920 3421 
Q 2238 3584 2597 3584 
Q 2691 3584 2781 3573 
Q 2872 3563 2963 3538 
L 2853 2969 
z
" transform="scale(0.015625)"/>
       <path id="DejaVuSans-Oblique-6f" d="M 1625 -91 
Q 1009 -91 651 289 
Q 294 669 294 1325 
Q 294 1706 417 2101 
Q 541 2497 738 2766 
Q 1047 3184 1428 3384 
Q 1809 3584 2291 3584 
Q 2888 3584 3255 3212 
Q 3622 2841 3622 2241 
Q 3622 1825 3500 1412 
Q 3378 1000 3181 728 
Q 2875 309 2494 109 
Q 2113 -91 1625 -91 
z
M 891 1344 
Q 891 869 1089 633 
Q 1288 397 1691 397 
Q 2269 397 2648 901 
Q 3028 1406 3028 2181 
Q 3028 2634 2825 2865 
Q 2622 3097 2228 3097 
Q 1903 3097 1650 2945 
Q 1397 2794 1197 2484 
Q 1050 2253 970 1956 
Q 891 1659 891 1344 
z
" transform="scale(0.015625)"/>
      </defs>
      <use xlink:href="#DejaVuSans-7c" transform="translate(0 0.584375)"/>
      <use xlink:href="#DejaVuSans-Oblique-75" transform="translate(33.691406 0.584375)"/>
      <use xlink:href="#Cmsy10-30" transform="translate(101.536458 38.865625) scale(0.7)"/>
      <use xlink:href="#DejaVuSans-Oblique-65" transform="translate(124.471029 -15.821875) scale(0.7)"/>
      <use xlink:href="#DejaVuSans-Oblique-78" transform="translate(167.537435 -15.821875) scale(0.7)"/>
      <use xlink:href="#DejaVuSans-Oblique-61" transform="translate(208.963216 -15.821875) scale(0.7)"/>
      <use xlink:href="#DejaVuSans-Oblique-63" transform="translate(251.858724 -15.821875) scale(0.7)"/>
      <use xlink:href="#DejaVuSans-Oblique-74" transform="translate(290.345052 -15.821875) scale(0.7)"/>
      <use xlink:href="#DejaVuSans-28" transform="translate(320.525716 0.584375)"/>
      <use xlink:href="#DejaVuSans-Oblique-78" transform="translate(359.539388 0.584375)"/>
      <use xlink:href="#DejaVuSans-29" transform="translate(418.719076 0.584375)"/>
      <use xlink:href="#DejaVuSans-2212" transform="translate(477.215169 0.584375)"/>
      <use xlink:href="#DejaVuSans-Oblique-75" transform="translate(580.486654 0.584375)"/>
      <use xlink:href="#Cmsy10-30" transform="translate(648.331706 38.865625) scale(0.7)"/>
      <use xlink:href="#DejaVuSans-Oblique-61" transform="translate(671.266276 -15.821875) scale(0.7)"/>
      <use xlink:href="#DejaVuSans-Oblique-70" transform="translate(714.161784 -15.821875) scale(0.7)"/>
      <use xlink:href="#DejaVuSans-Oblique-70" transform="translate(758.595378 -15.821875) scale(0.7)"/>
      <use xlink:href="#DejaVuSans-Oblique-72" transform="translate(803.028971 -15.821875) scale(0.7)"/>
      <use xlink:href="#DejaVuSans-Oblique-6f" transform="translate(831.808268 -15.821875) scale(0.7)"/>
      <use xlink:href="#DejaVuSans-Oblique-78" transform="translate(874.635417 -15.821875) scale(0.7)"/>
      <use xlink:href="#DejaVuSans-28" transform="translate(918.795573 0.584375)"/>
      <use xlink:href="#DejaVuSans-Oblique-78" transform="translate(957.809245 0.584375)"/>
      <use xlink:href="#DejaVuSans-29" transform="translate(1016.988932 0.584375)"/>
      <use xlink:href="#DejaVuSans-7c" transform="translate(1056.002604 0.584375)"/>
     </g>
    </g>
   </g>
   <g id="line2d_52">
    <path d="M 70.945407 49.00658 
L 74.104508 52.781008 
L 77.26361 56.824352 
L 80.422711 61.181553 
L 83.581813 65.910673 
L 86.740914 71.08878 
L 89.900015 76.821614 
L 93.059117 83.260448 
L 96.218218 90.633752 
L 97.797769 94.778119 
L 99.37732 99.312778 
L 100.956871 104.33125 
L 102.536421 109.967219 
L 104.115972 116.421781 
L 105.695523 124.018745 
L 107.275074 133.331801 
L 108.854624 145.536597 
L 110.434175 163.743337 
L 112.013726 203.594425 
L 113.593276 195.64237 
L 115.172827 164.547842 
L 116.752378 150.157638 
L 118.331929 141.090611 
L 119.911479 134.713261 
L 121.49103 129.987225 
L 123.070581 126.398657 
L 124.650132 123.658697 
L 126.229682 121.592032 
L 127.809233 120.087732 
L 129.388784 119.075054 
L 130.968335 118.510729 
L 132.547885 118.372215 
L 134.127436 118.654496 
L 135.706987 119.369395 
L 137.286537 120.547205 
L 138.866088 122.241129 
L 140.445639 124.53601 
L 142.02519 127.564696 
L 143.60474 131.539863 
L 145.184291 136.821157 
L 146.763842 144.076689 
L 148.343393 154.760279 
L 149.922943 173.153822 
L 151.502494 233.498508 
L 153.082045 181.597214 
L 154.661596 154.97799 
L 156.241146 139.79407 
L 157.820697 128.932816 
L 159.400248 120.376408 
L 160.979798 113.26229 
L 162.559349 107.140527 
L 164.1389 101.746109 
L 165.718451 96.909473 
L 167.298001 92.515384 
L 168.877552 88.481833 
L 170.457103 88.964718 
L 173.616204 93.002039 
L 176.775306 97.353458 
L 179.934407 102.07605 
L 183.093509 107.245194 
L 186.25261 112.963692 
L 189.411712 119.377535 
L 192.570813 126.705173 
L 194.150364 130.813246 
L 195.729915 135.297277 
L 197.309465 140.243951 
L 198.889016 145.775761 
L 200.468567 152.074311 
L 202.048118 159.426422 
L 203.627668 168.326542 
L 205.207219 179.745627 
L 206.78677 196.056351 
L 208.366321 226.627515 
L 209.945871 250.964014 
L 211.525422 207.602967 
L 213.104973 191.134383 
L 214.684523 181.284359 
L 216.264074 174.556591 
L 217.843625 169.686376 
L 219.423176 166.076407 
L 221.002726 163.401908 
L 222.582277 161.471831 
L 224.161828 160.170031 
L 225.741379 159.427369 
L 227.320929 159.207862 
L 228.90048 159.502269 
L 230.480031 160.326536 
L 232.059582 161.72451 
L 233.639132 163.775938 
L 235.218683 166.61313 
L 236.798234 170.454644 
L 238.377784 175.678036 
L 239.957335 182.998591 
L 241.536886 194.013517 
L 243.116437 213.672367 
L 244.695987 301.667812 
L 246.275538 214.938584 
L 247.855089 190.232459 
L 249.43464 175.549431 
L 251.01419 164.874725 
L 252.593741 156.387745 
L 254.173292 149.288553 
L 255.752843 143.153111 
L 257.332393 137.728924 
L 258.911944 132.853131 
L 260.491495 128.414352 
L 263.650596 120.54975 
L 266.809698 113.707898 
L 268.389248 113.262964 
L 271.54835 118.097556 
L 274.707451 123.464991 
L 277.866553 129.514607 
L 279.446104 132.861751 
L 281.025654 136.473594 
L 282.605205 140.401497 
L 284.184756 144.714083 
L 285.764306 149.506046 
L 287.343857 154.91343 
L 288.923408 161.142071 
L 290.502959 168.525702 
L 292.082509 177.660951 
L 293.66206 189.78687 
L 295.241611 208.263193 
L 296.821162 251.530603 
L 298.400712 234.422977 
L 299.980263 205.059856 
L 301.559814 190.711706 
L 303.139365 181.375376 
L 304.718915 174.59412 
L 306.298466 169.376377 
L 307.878017 165.2228 
L 309.457568 161.847127 
L 311.037118 159.070679 
L 312.616669 156.775137 
L 314.19622 154.87881 
L 315.77577 153.323654 
L 317.355321 152.067706 
L 318.934872 151.08047 
L 320.514423 150.340003 
L 322.093973 149.831051 
L 323.673524 149.543866 
L 325.253075 149.473493 
L 326.832626 149.61943 
L 328.412176 149.985589 
L 329.991727 150.580573 
L 331.571278 151.418287 
L 333.150829 152.519003 
L 334.730379 153.911045 
L 336.30993 155.633413 
L 337.889481 157.739932 
L 339.469031 160.305977 
L 341.048582 163.43989 
L 342.628133 167.303508 
L 344.207684 172.152147 
L 345.787234 178.421254 
L 347.366785 186.94551 
L 348.946336 199.665186 
L 350.525887 223.27281 
L 352.105437 282.108217 
L 353.684988 212.681661 
L 355.264539 191.476654 
L 356.84409 178.245811 
L 358.42364 168.480913 
L 360.003191 160.671109 
L 361.582742 154.12211 
L 363.162292 148.456437 
L 364.741843 143.445728 
L 366.321394 140.900554 
L 367.900945 144.59948 
L 369.480495 148.673287 
L 371.060046 153.215427 
L 372.639597 158.360189 
L 374.219148 164.310705 
L 375.798698 171.396018 
L 377.378249 180.203204 
L 378.9578 191.946788 
L 380.537351 209.892753 
L 382.116901 251.396177 
L 383.696452 237.145277 
L 385.276003 206.701873 
L 386.855553 191.816735 
L 388.435104 182.021815 
L 390.014655 174.796214 
L 391.594206 169.12858 
L 393.173756 164.5105 
L 394.753307 160.650166 
L 396.332858 157.364665 
L 397.912409 154.531883 
L 399.491959 152.06636 
L 401.07151 149.906066 
L 402.651061 148.004666 
L 404.230612 146.326744 
L 405.810162 144.84473 
L 407.389713 143.536856 
L 408.969264 142.385737 
L 412.128365 140.500515 
L 415.287467 139.106423 
L 418.446568 138.150121 
L 421.60567 137.599251 
L 424.764771 137.437967 
L 427.923873 137.664899 
L 431.082974 138.292984 
L 434.242076 139.351112 
L 435.821626 140.055737 
L 437.401177 140.888054 
L 438.980728 141.858472 
L 440.560278 142.979862 
L 442.139829 144.268192 
L 443.71938 145.743393 
L 445.298931 147.430591 
L 446.878481 149.361867 
L 448.458032 151.57888 
L 450.037583 154.136876 
L 451.617134 157.111066 
L 453.196684 160.607301 
L 454.776235 164.781034 
L 456.355786 169.873733 
L 457.935337 176.290441 
L 459.514887 184.791091 
L 461.094438 197.082562 
L 462.673989 218.612673 
L 462.676847 351.889687 
L 462.676847 351.889687 
" clip-path="url(#p89eacac7a6)" style="fill: none; stroke: #ff7f0e; stroke-width: 1.5; stroke-linecap: round"/>
   </g>
   <g id="line2d_53">
    <path d="M 70.945407 46.543765 
L 75.684059 49.642075 
L 80.422711 53.014294 
L 85.161363 56.716159 
L 88.320465 59.40333 
L 91.479566 62.299016 
L 94.638668 65.440243 
L 97.797769 68.875093 
L 100.956871 72.667606 
L 104.115972 76.905742 
L 107.275074 81.715022 
L 108.854624 84.389086 
L 110.434175 87.283545 
L 112.013726 90.439769 
L 113.593276 93.912071 
L 115.172827 97.773737 
L 116.752378 102.127056 
L 118.331929 107.120969 
L 119.911479 112.984635 
L 121.49103 120.097909 
L 123.070581 129.161671 
L 124.650132 141.707677 
L 126.229682 162.343278 
L 127.809233 234.606022 
L 129.388784 170.241016 
L 130.968335 146.08719 
L 132.547885 132.573053 
L 134.127436 123.174123 
L 135.706987 115.978494 
L 137.286537 110.158874 
L 138.866088 105.281298 
L 140.445639 101.089585 
L 142.02519 97.419794 
L 143.60474 94.160654 
L 145.184291 91.233172 
L 146.763842 88.579242 
L 149.922943 83.925976 
L 153.082045 79.951958 
L 156.241146 76.49733 
L 159.400248 73.453322 
L 162.559349 70.742583 
L 165.718451 68.308162 
L 168.877552 66.106927 
L 170.457103 75.469679 
L 175.195755 79.803408 
L 179.934407 84.560501 
L 183.093509 88.01552 
L 186.25261 91.74269 
L 189.411712 95.793783 
L 192.570813 100.237818 
L 195.729915 105.169823 
L 198.889016 110.726021 
L 202.048118 117.112065 
L 203.627668 120.712551 
L 205.207219 124.660646 
L 206.78677 129.039115 
L 208.366321 133.965059 
L 209.945871 139.612057 
L 211.525422 146.253691 
L 213.104973 154.359231 
L 214.684523 164.840979 
L 216.264074 179.882531 
L 217.843625 207.616377 
L 219.423176 243.374848 
L 221.002726 192.367479 
L 222.582277 174.113592 
L 224.161828 162.927992 
L 225.741379 154.944912 
L 227.320929 148.802105 
L 228.90048 143.858929 
L 230.480031 139.762602 
L 232.059582 136.298165 
L 233.639132 133.325038 
L 235.218683 130.746355 
L 236.798234 128.492649 
L 238.377784 126.512514 
L 239.957335 124.766948 
L 241.536886 123.225762 
L 243.116437 121.865213 
L 244.695987 120.666396 
L 246.275538 119.614114 
L 249.43464 117.902346 
L 252.593741 116.657074 
L 255.752843 115.831345 
L 258.911944 115.397147 
L 262.071045 115.341693 
L 265.230147 115.665837 
L 266.809698 115.974248 
L 268.389248 87.791428 
L 271.54835 88.255014 
L 274.707451 88.894259 
L 277.866553 89.720989 
L 281.025654 90.751019 
L 284.184756 92.005176 
L 287.343857 93.510785 
L 290.502959 95.303897 
L 293.66206 97.432666 
L 296.821162 99.962682 
L 299.980263 102.98573 
L 301.559814 104.721515 
L 303.139365 106.635022 
L 304.718915 108.753968 
L 306.298466 111.113559 
L 307.878017 113.759417 
L 309.457568 116.75211 
L 311.037118 120.174449 
L 312.616669 124.143864 
L 314.19622 128.834808 
L 315.77577 134.522852 
L 317.355321 141.681883 
L 318.934872 151.236247 
L 320.514423 165.410403 
L 322.093973 192.601142 
L 323.673524 224.319695 
L 325.253075 174.090291 
L 326.832626 155.024725 
L 328.412176 142.893407 
L 329.991727 133.918547 
L 331.571278 126.758444 
L 333.150829 120.779416 
L 334.730379 115.631382 
L 336.30993 111.100379 
L 337.889481 107.046014 
L 339.469031 103.371168 
L 342.628133 96.897928 
L 345.787234 91.303541 
L 348.946336 86.359965 
L 352.105437 81.918652 
L 355.264539 77.877367 
L 358.42364 74.162695 
L 361.582742 70.720101 
L 364.741843 67.507944 
L 366.321394 43.500795 
L 371.060046 45.885295 
L 375.798698 48.592181 
L 378.9578 50.610608 
L 382.116901 52.83189 
L 385.276003 55.291504 
L 388.435104 58.035401 
L 391.594206 61.12457 
L 394.753307 64.642397 
L 397.912409 68.707162 
L 399.491959 70.996364 
L 401.07151 73.494687 
L 402.651061 76.240312 
L 404.230612 79.282991 
L 405.810162 82.689256 
L 407.389713 86.55093 
L 408.969264 90.99983 
L 410.548814 96.234997 
L 412.128365 102.577949 
L 413.707916 110.599793 
L 415.287467 121.473131 
L 416.867017 138.303939 
L 418.446568 176.71896 
L 420.026119 167.34051 
L 421.60567 134.711198 
L 423.18522 118.736177 
L 424.764771 108.021187 
L 426.344322 99.92545 
L 427.923873 93.403044 
L 429.503423 87.931554 
L 431.082974 83.212167 
L 432.662525 79.057858 
L 434.242076 75.34376 
L 435.821626 71.982346 
L 438.980728 66.078511 
L 442.139829 60.999528 
L 445.298931 56.533145 
L 448.458032 52.539958 
L 451.617134 48.923469 
L 454.776235 45.614101 
L 457.935337 42.560027 
L 462.673989 38.373297 
L 464.253539 37.067812 
L 464.253539 37.067812 
" clip-path="url(#p89eacac7a6)" style="fill: none; stroke: #2ca02c; stroke-width: 1.5; stroke-linecap: round"/>
   </g>
   <g id="line2d_54">
    <path d="M 70.945407 46.543765 
L 75.684059 51.206202 
L 80.422711 56.304949 
L 83.581813 59.994237 
L 86.740914 63.959753 
L 89.900015 68.251434 
L 93.059117 72.935115 
L 96.218218 78.100292 
L 99.37732 83.873367 
L 102.536421 90.441774 
L 104.115972 94.110376 
L 105.695523 98.101949 
L 107.275074 102.487757 
L 108.854624 107.366596 
L 110.434175 112.881227 
L 112.013726 119.249295 
L 113.593276 126.827357 
L 115.172827 136.262574 
L 116.752378 148.93251 
L 118.331929 168.762227 
L 119.911479 222.438759 
L 121.49103 186.150335 
L 123.070581 160.179542 
L 124.650132 146.716665 
L 126.229682 137.792809 
L 127.809233 131.252367 
L 129.388784 126.193389 
L 130.968335 122.152534 
L 132.547885 118.86074 
L 134.127436 116.148527 
L 135.706987 113.902876 
L 137.286537 112.045303 
L 138.866088 110.519745 
L 140.445639 109.285459 
L 142.02519 108.312646 
L 143.60474 107.579684 
L 145.184291 107.071335 
L 146.763842 106.777591 
L 148.343393 106.692975 
L 149.922943 106.816164 
L 151.502494 107.14991 
L 153.082045 107.701214 
L 154.661596 108.481812 
L 156.241146 109.509014 
L 157.820697 110.807055 
L 159.400248 112.409176 
L 160.979798 114.36087 
L 162.559349 116.725035 
L 164.1389 119.590484 
L 165.718451 123.086734 
L 167.298001 127.411485 
L 168.877552 132.886562 
L 170.457103 140.993411 
L 172.036654 151.951228 
L 173.616204 167.858149 
L 175.195755 198.510973 
L 176.775306 218.767424 
L 178.354857 176.373357 
L 179.934407 159.37845 
L 181.513958 148.792992 
L 183.093509 141.214054 
L 184.67306 135.393128 
L 186.25261 130.731331 
L 187.832161 126.894976 
L 189.411712 123.679222 
L 190.991262 120.949471 
L 192.570813 118.612745 
L 194.150364 116.602319 
L 195.729915 114.868883 
L 197.309465 113.375155 
L 198.889016 112.092462 
L 200.468567 110.998474 
L 202.048118 110.075671 
L 203.627668 109.310273 
L 205.207219 108.691487 
L 206.78677 108.210965 
L 208.366321 107.862418 
L 209.945871 107.641342 
L 211.525422 107.544833 
L 213.104973 107.571472 
L 214.684523 107.721266 
L 216.264074 107.995652 
L 217.843625 108.39755 
L 219.423176 108.931484 
L 221.002726 109.603764 
L 222.582277 110.422763 
L 224.161828 111.399304 
L 225.741379 112.547204 
L 227.320929 113.88403 
L 228.90048 115.432173 
L 230.480031 117.220391 
L 232.059582 119.286074 
L 233.639132 121.678694 
L 235.218683 124.46521 
L 236.798234 127.738964 
L 238.377784 131.63514 
L 239.957335 136.359613 
L 241.536886 142.248042 
L 243.116437 149.903646 
L 244.695987 160.586655 
L 246.275538 177.746538 
L 247.855089 220.956509 
L 249.43464 199.177794 
L 251.01419 168.907276 
L 252.593741 153.13378 
L 254.173292 142.264885 
L 255.752843 133.898791 
L 257.332393 127.057925 
L 258.911944 121.246607 
L 260.491495 116.178491 
L 262.071045 111.673042 
L 263.650596 107.60903 
L 265.230147 103.901064 
L 266.809698 100.486698 
L 268.389248 100.769731 
L 269.968799 104.815317 
L 271.54835 109.264934 
L 273.127901 114.221909 
L 274.707451 119.836522 
L 276.287002 126.339805 
L 277.866553 134.114627 
L 279.446104 143.867768 
L 281.025654 157.146454 
L 282.605205 178.625801 
L 284.184756 254.281162 
L 285.764306 187.311146 
L 287.343857 164.124276 
L 288.923408 151.463142 
L 290.502959 142.911691 
L 292.082509 136.579098 
L 293.66206 131.646125 
L 295.241611 127.683435 
L 296.821162 124.43835 
L 298.400712 121.750095 
L 299.980263 119.510544 
L 301.559814 117.644004 
L 303.139365 116.095937 
L 304.718915 114.826282 
L 306.298466 113.805318 
L 307.878017 113.011001 
L 309.457568 112.427222 
L 311.037118 112.042654 
L 312.616669 111.849999 
L 314.19622 111.845537 
L 315.77577 112.028899 
L 317.355321 112.403043 
L 318.934872 112.974437 
L 320.514423 113.753454 
L 322.093973 114.755052 
L 323.673524 115.99982 
L 325.253075 117.515572 
L 326.832626 119.339763 
L 328.412176 121.523228 
L 329.991727 124.13616 
L 331.571278 127.2781 
L 333.150829 131.095564 
L 334.730379 135.815618 
L 336.30993 141.816442 
L 337.889481 149.797954 
L 339.469031 161.292894 
L 341.048582 180.919484 
L 342.628133 252.652488 
L 344.207684 186.687162 
L 345.787234 161.602107 
L 347.366785 147.150188 
L 348.946336 136.826179 
L 350.525887 128.720858 
L 352.105437 122.007189 
L 353.684988 116.250841 
L 355.264539 111.195073 
L 356.84409 106.675328 
L 358.42364 102.57971 
L 361.582742 95.363352 
L 364.741843 89.122034 
L 367.900945 83.462212 
L 369.480495 81.082481 
L 371.060046 79.016784 
L 372.639597 77.217656 
L 374.219148 75.64899 
L 375.798698 74.282826 
L 377.378249 73.097221 
L 378.9578 72.074788 
L 380.537351 71.201679 
L 382.116901 70.466855 
L 383.696452 69.861554 
L 385.276003 69.378914 
L 388.435104 68.762035 
L 391.594206 68.590388 
L 394.753307 68.857383 
L 396.332858 69.158289 
L 397.912409 69.57473 
L 399.491959 70.111305 
L 401.07151 70.774126 
L 402.651061 71.571066 
L 404.230612 72.512093 
L 405.810162 73.609725 
L 407.389713 74.879665 
L 408.969264 76.341671 
L 410.548814 78.020804 
L 412.128365 79.949216 
L 413.707916 82.168815 
L 415.287467 84.735351 
L 416.867017 87.724944 
L 418.446568 91.245019 
L 420.026119 95.453812 
L 421.60567 100.597968 
L 423.18522 107.0931 
L 424.764771 115.724132 
L 426.344322 128.273794 
L 427.923873 150.576962 
L 429.503423 247.139457 
L 431.082974 146.289807 
L 432.662525 124.126974 
L 434.242076 110.730482 
L 435.821626 101.003265 
L 437.401177 93.309034 
L 438.980728 86.910863 
L 440.560278 81.413001 
L 442.139829 76.578088 
L 443.71938 72.252446 
L 445.298931 68.330812 
L 448.458032 61.417942 
L 451.617134 55.436563 
L 454.776235 50.144914 
L 457.935337 45.386241 
L 461.094438 41.052936 
L 464.253539 37.067812 
L 464.253539 37.067812 
" clip-path="url(#p89eacac7a6)" style="fill: none; stroke-dasharray: 5.55,2.4; stroke-dashoffset: 0; stroke: #d62728; stroke-width: 1.5"/>
   </g>
   <g id="line2d_55">
    <path d="M 70.945407 55.39546 
L 75.684059 59.464121 
L 80.422711 63.858044 
L 85.161363 68.637655 
L 88.320465 72.076918 
L 91.479566 75.753344 
L 94.638668 79.705444 
L 97.797769 83.982637 
L 100.956871 88.649948 
L 104.115972 93.795571 
L 107.275074 99.543728 
L 110.434175 106.077988 
L 112.013726 109.723978 
L 113.593276 113.687394 
L 115.172827 118.037246 
L 116.752378 122.868816 
L 118.331929 128.319086 
L 119.911479 134.595504 
L 121.49103 142.034873 
L 123.070581 151.240494 
L 124.650132 163.469358 
L 126.229682 182.151955 
L 127.809233 226.597132 
L 129.388784 207.126145 
L 130.968335 178.316975 
L 132.547885 164.132719 
L 134.127436 154.892194 
L 135.706987 148.183479 
L 137.286537 143.028179 
L 138.866088 138.932289 
L 140.445639 135.612199 
L 142.02519 132.890768 
L 143.60474 130.650698 
L 145.184291 128.811067 
L 146.763842 127.314481 
L 148.343393 126.119593 
L 149.922943 125.196531 
L 151.502494 124.524034 
L 153.082045 124.087624 
L 154.661596 123.878462 
L 156.241146 123.892698 
L 157.820697 124.13119 
L 159.400248 124.599572 
L 160.979798 125.308653 
L 162.559349 126.27524 
L 164.1389 127.5235 
L 165.718451 129.087114 
L 167.298001 131.012673 
L 168.877552 133.365133 
L 172.036654 139.101886 
L 173.616204 142.31474 
L 175.195755 145.812668 
L 176.775306 149.658246 
L 178.354857 153.937248 
L 179.934407 158.771744 
L 181.513958 164.343989 
L 183.093509 170.943906 
L 184.67306 179.075183 
L 186.25261 189.736263 
L 187.832161 205.401876 
L 189.411712 236.193537 
L 190.991262 253.686742 
L 192.570813 211.991325 
L 194.150364 194.736711 
L 195.729915 183.77307 
L 197.309465 175.766152 
L 198.889016 169.484186 
L 200.468567 164.333857 
L 202.048118 159.983417 
L 203.627668 156.228445 
L 205.207219 152.934012 
L 206.78677 150.006359 
L 208.366321 147.37768 
L 209.945871 144.997339 
L 213.104973 140.834816 
L 216.264074 137.296209 
L 219.423176 134.236097 
L 222.582277 131.554156 
L 225.741379 129.178194 
L 228.90048 127.054476 
L 232.059582 125.141879 
L 236.798234 122.600195 
L 241.536886 120.37942 
L 246.275538 118.418022 
L 251.01419 116.668995 
L 257.332393 114.604665 
L 263.650596 112.784943 
L 268.389248 111.556782 
L 271.54835 110.976184 
L 274.707451 110.677758 
L 277.866553 110.651358 
L 281.025654 110.893937 
L 284.184756 111.40928 
L 287.343857 112.208332 
L 290.502959 113.310176 
L 293.66206 114.743853 
L 296.821162 116.551409 
L 299.980263 118.792913 
L 303.139365 121.554885 
L 304.718915 123.168729 
L 306.298466 124.965036 
L 307.878017 126.970664 
L 309.457568 129.219796 
L 311.037118 131.756769 
L 312.616669 134.640444 
L 314.19622 137.951209 
L 315.77577 141.802816 
L 317.355321 146.363683 
L 318.934872 151.898496 
L 320.514423 158.858958 
L 322.093973 168.115524 
L 323.673524 181.717481 
L 325.253075 206.977764 
L 326.832626 253.400582 
L 328.412176 193.828735 
L 329.991727 173.787818 
L 331.571278 161.267903 
L 333.150829 152.076881 
L 334.730379 144.775691 
L 336.30993 138.695755 
L 337.889481 133.471347 
L 339.469031 128.880423 
L 341.048582 124.777967 
L 342.628133 121.064014 
L 345.787234 114.532653 
L 348.946336 108.900118 
L 352.105437 103.933486 
L 355.264539 99.481266 
L 358.42364 95.439277 
L 361.582742 91.732721 
L 364.741843 88.306031 
L 367.900945 85.223532 
L 369.480495 83.931625 
L 371.060046 82.795079 
L 374.219148 80.933797 
L 377.378249 79.55499 
L 380.537351 78.603058 
L 383.696452 78.042959 
L 386.855553 77.855473 
L 390.014655 78.034824 
L 393.173756 78.587992 
L 396.332858 79.535542 
L 399.491959 80.914195 
L 401.07151 81.782236 
L 402.651061 82.781826 
L 404.230612 83.924975 
L 405.810162 85.226499 
L 407.389713 86.704786 
L 408.969264 88.382871 
L 410.548814 90.289963 
L 412.128365 92.46368 
L 413.707916 94.953432 
L 415.287467 97.825709 
L 416.867017 101.172751 
L 418.446568 105.127564 
L 420.026119 109.891814 
L 421.60567 115.792656 
L 423.18522 123.414195 
L 424.764771 133.964579 
L 426.344322 150.687721 
L 427.923873 190.699124 
L 429.503423 176.010677 
L 431.082974 144.218472 
L 432.662525 128.117961 
L 434.242076 117.127453 
L 435.821626 108.710191 
L 437.401177 101.849597 
L 438.980728 96.034597 
L 440.560278 90.971591 
L 442.139829 86.476211 
L 443.71938 82.425033 
L 445.298931 78.731335 
L 448.458032 72.178916 
L 451.617134 66.473655 
L 454.776235 61.403359 
L 457.935337 56.828074 
L 461.094438 52.650495 
L 464.253539 48.800137 
L 464.253539 48.800137 
" clip-path="url(#p89eacac7a6)" style="fill: none; stroke-dasharray: 9.6,2.4,1.5,2.4; stroke-dashoffset: 0; stroke: #9467bd; stroke-width: 1.5"/>
   </g>
   <g id="patch_3">
    <path d="M 51.28 314.897812 
L 51.28 23.837812 
" style="fill: none; stroke: #cccccc; stroke-linejoin: miter; stroke-linecap: square"/>
   </g>
   <g id="patch_4">
    <path d="M 483.918946 314.897812 
L 483.918946 23.837812 
" style="fill: none; stroke: #cccccc; stroke-linejoin: miter; stroke-linecap: square"/>
   </g>
   <g id="patch_5">
    <path d="M 51.28 314.897812 
L 483.918946 314.897812 
" style="fill: none; stroke: #cccccc; stroke-linejoin: miter; stroke-linecap: square"/>
   </g>
   <g id="patch_6">
    <path d="M 51.28 23.837812 
L 483.918946 23.837812 
" style="fill: none; stroke: #cccccc; stroke-linejoin: miter; stroke-linecap: square"/>
   </g>
   <g id="text_13">
    <!-- Derivative Error (log scale) -->
    <g style="fill: #262626" transform="translate(173.603692 17.837812) scale(0.14 -0.14)">
     <defs>
      <path id="DejaVuSans-44" d="M 1259 4147 
L 1259 519 
L 2022 519 
Q 2988 519 3436 956 
Q 3884 1394 3884 2338 
Q 3884 3275 3436 3711 
Q 2988 4147 2022 4147 
L 1259 4147 
z
M 628 4666 
L 1925 4666 
Q 3281 4666 3915 4102 
Q 4550 3538 4550 2338 
Q 4550 1131 3912 565 
Q 3275 0 1925 0 
L 628 0 
L 628 4666 
z
" transform="scale(0.015625)"/>
      <path id="DejaVuSans-65" d="M 3597 1894 
L 3597 1613 
L 953 1613 
Q 991 1019 1311 708 
Q 1631 397 2203 397 
Q 2534 397 2845 478 
Q 3156 559 3463 722 
L 3463 178 
Q 3153 47 2828 -22 
Q 2503 -91 2169 -91 
Q 1331 -91 842 396 
Q 353 884 353 1716 
Q 353 2575 817 3079 
Q 1281 3584 2069 3584 
Q 2775 3584 3186 3129 
Q 3597 2675 3597 1894 
z
M 3022 2063 
Q 3016 2534 2758 2815 
Q 2500 3097 2075 3097 
Q 1594 3097 1305 2825 
Q 1016 2553 972 2059 
L 3022 2063 
z
" transform="scale(0.015625)"/>
      <path id="DejaVuSans-72" d="M 2631 2963 
Q 2534 3019 2420 3045 
Q 2306 3072 2169 3072 
Q 1681 3072 1420 2755 
Q 1159 2438 1159 1844 
L 1159 0 
L 581 0 
L 581 3500 
L 1159 3500 
L 1159 2956 
Q 1341 3275 1631 3429 
Q 1922 3584 2338 3584 
Q 2397 3584 2469 3576 
Q 2541 3569 2628 3553 
L 2631 2963 
z
" transform="scale(0.015625)"/>
      <path id="DejaVuSans-69" d="M 603 3500 
L 1178 3500 
L 1178 0 
L 603 0 
L 603 3500 
z
M 603 4863 
L 1178 4863 
L 1178 4134 
L 603 4134 
L 603 4863 
z
" transform="scale(0.015625)"/>
      <path id="DejaVuSans-76" d="M 191 3500 
L 800 3500 
L 1894 563 
L 2988 3500 
L 3597 3500 
L 2284 0 
L 1503 0 
L 191 3500 
z
" transform="scale(0.015625)"/>
      <path id="DejaVuSans-61" d="M 2194 1759 
Q 1497 1759 1228 1600 
Q 959 1441 959 1056 
Q 959 750 1161 570 
Q 1363 391 1709 391 
Q 2188 391 2477 730 
Q 2766 1069 2766 1631 
L 2766 1759 
L 2194 1759 
z
M 3341 1997 
L 3341 0 
L 2766 0 
L 2766 531 
Q 2569 213 2275 61 
Q 1981 -91 1556 -91 
Q 1019 -91 701 211 
Q 384 513 384 1019 
Q 384 1609 779 1909 
Q 1175 2209 1959 2209 
L 2766 2209 
L 2766 2266 
Q 2766 2663 2505 2880 
Q 2244 3097 1772 3097 
Q 1472 3097 1187 3025 
Q 903 2953 641 2809 
L 641 3341 
Q 956 3463 1253 3523 
Q 1550 3584 1831 3584 
Q 2591 3584 2966 3190 
Q 3341 2797 3341 1997 
z
" transform="scale(0.015625)"/>
      <path id="DejaVuSans-74" d="M 1172 4494 
L 1172 3500 
L 2356 3500 
L 2356 3053 
L 1172 3053 
L 1172 1153 
Q 1172 725 1289 603 
Q 1406 481 1766 481 
L 2356 481 
L 2356 0 
L 1766 0 
Q 1100 0 847 248 
Q 594 497 594 1153 
L 594 3053 
L 172 3053 
L 172 3500 
L 594 3500 
L 594 4494 
L 1172 4494 
z
" transform="scale(0.015625)"/>
      <path id="DejaVuSans-20" transform="scale(0.015625)"/>
      <path id="DejaVuSans-45" d="M 628 4666 
L 3578 4666 
L 3578 4134 
L 1259 4134 
L 1259 2753 
L 3481 2753 
L 3481 2222 
L 1259 2222 
L 1259 531 
L 3634 531 
L 3634 0 
L 628 0 
L 628 4666 
z
" transform="scale(0.015625)"/>
      <path id="DejaVuSans-6f" d="M 1959 3097 
Q 1497 3097 1228 2736 
Q 959 2375 959 1747 
Q 959 1119 1226 758 
Q 1494 397 1959 397 
Q 2419 397 2687 759 
Q 2956 1122 2956 1747 
Q 2956 2369 2687 2733 
Q 2419 3097 1959 3097 
z
M 1959 3584 
Q 2709 3584 3137 3096 
Q 3566 2609 3566 1747 
Q 3566 888 3137 398 
Q 2709 -91 1959 -91 
Q 1206 -91 779 398 
Q 353 888 353 1747 
Q 353 2609 779 3096 
Q 1206 3584 1959 3584 
z
" transform="scale(0.015625)"/>
      <path id="DejaVuSans-6c" d="M 603 4863 
L 1178 4863 
L 1178 0 
L 603 0 
L 603 4863 
z
" transform="scale(0.015625)"/>
      <path id="DejaVuSans-67" d="M 2906 1791 
Q 2906 2416 2648 2759 
Q 2391 3103 1925 3103 
Q 1463 3103 1205 2759 
Q 947 2416 947 1791 
Q 947 1169 1205 825 
Q 1463 481 1925 481 
Q 2391 481 2648 825 
Q 2906 1169 2906 1791 
z
M 3481 434 
Q 3481 -459 3084 -895 
Q 2688 -1331 1869 -1331 
Q 1566 -1331 1297 -1286 
Q 1028 -1241 775 -1147 
L 775 -588 
Q 1028 -725 1275 -790 
Q 1522 -856 1778 -856 
Q 2344 -856 2625 -561 
Q 2906 -266 2906 331 
L 2906 616 
Q 2728 306 2450 153 
Q 2172 0 1784 0 
Q 1141 0 747 490 
Q 353 981 353 1791 
Q 353 2603 747 3093 
Q 1141 3584 1784 3584 
Q 2172 3584 2450 3431 
Q 2728 3278 2906 2969 
L 2906 3500 
L 3481 3500 
L 3481 434 
z
" transform="scale(0.015625)"/>
      <path id="DejaVuSans-73" d="M 2834 3397 
L 2834 2853 
Q 2591 2978 2328 3040 
Q 2066 3103 1784 3103 
Q 1356 3103 1142 2972 
Q 928 2841 928 2578 
Q 928 2378 1081 2264 
Q 1234 2150 1697 2047 
L 1894 2003 
Q 2506 1872 2764 1633 
Q 3022 1394 3022 966 
Q 3022 478 2636 193 
Q 2250 -91 1575 -91 
Q 1294 -91 989 -36 
Q 684 19 347 128 
L 347 722 
Q 666 556 975 473 
Q 1284 391 1588 391 
Q 1994 391 2212 530 
Q 2431 669 2431 922 
Q 2431 1156 2273 1281 
Q 2116 1406 1581 1522 
L 1381 1569 
Q 847 1681 609 1914 
Q 372 2147 372 2553 
Q 372 3047 722 3315 
Q 1072 3584 1716 3584 
Q 2034 3584 2315 3537 
Q 2597 3491 2834 3397 
z
" transform="scale(0.015625)"/>
      <path id="DejaVuSans-63" d="M 3122 3366 
L 3122 2828 
Q 2878 2963 2633 3030 
Q 2388 3097 2138 3097 
Q 1578 3097 1268 2742 
Q 959 2388 959 1747 
Q 959 1106 1268 751 
Q 1578 397 2138 397 
Q 2388 397 2633 464 
Q 2878 531 3122 666 
L 3122 134 
Q 2881 22 2623 -34 
Q 2366 -91 2075 -91 
Q 1284 -91 818 406 
Q 353 903 353 1747 
Q 353 2603 823 3093 
Q 1294 3584 2113 3584 
Q 2378 3584 2631 3529 
Q 2884 3475 3122 3366 
z
" transform="scale(0.015625)"/>
     </defs>
     <use xlink:href="#DejaVuSans-44"/>
     <use xlink:href="#DejaVuSans-65" transform="translate(77.001953 0)"/>
     <use xlink:href="#DejaVuSans-72" transform="translate(138.525391 0)"/>
     <use xlink:href="#DejaVuSans-69" transform="translate(179.638672 0)"/>
     <use xlink:href="#DejaVuSans-76" transform="translate(207.421875 0)"/>
     <use xlink:href="#DejaVuSans-61" transform="translate(266.601562 0)"/>
     <use xlink:href="#DejaVuSans-74" transform="translate(327.880859 0)"/>
     <use xlink:href="#DejaVuSans-69" transform="translate(367.089844 0)"/>
     <use xlink:href="#DejaVuSans-76" transform="translate(394.873047 0)"/>
     <use xlink:href="#DejaVuSans-65" transform="translate(454.052734 0)"/>
     <use xlink:href="#DejaVuSans-20" transform="translate(515.576172 0)"/>
     <use xlink:href="#DejaVuSans-45" transform="translate(547.363281 0)"/>
     <use xlink:href="#DejaVuSans-72" transform="translate(610.546875 0)"/>
     <use xlink:href="#DejaVuSans-72" transform="translate(649.910156 0)"/>
     <use xlink:href="#DejaVuSans-6f" transform="translate(688.773438 0)"/>
     <use xlink:href="#DejaVuSans-72" transform="translate(749.955078 0)"/>
     <use xlink:href="#DejaVuSans-20" transform="translate(791.068359 0)"/>
     <use xlink:href="#DejaVuSans-28" transform="translate(822.855469 0)"/>
     <use xlink:href="#DejaVuSans-6c" transform="translate(861.869141 0)"/>
     <use xlink:href="#DejaVuSans-6f" transform="translate(889.652344 0)"/>
     <use xlink:href="#DejaVuSans-67" transform="translate(950.833984 0)"/>
     <use xlink:href="#DejaVuSans-20" transform="translate(1014.310547 0)"/>
     <use xlink:href="#DejaVuSans-73" transform="translate(1046.097656 0)"/>
     <use xlink:href="#DejaVuSans-63" transform="translate(1098.197266 0)"/>
     <use xlink:href="#DejaVuSans-61" transform="translate(1153.177734 0)"/>
     <use xlink:href="#DejaVuSans-6c" transform="translate(1214.457031 0)"/>
     <use xlink:href="#DejaVuSans-65" transform="translate(1242.240234 0)"/>
     <use xlink:href="#DejaVuSans-29" transform="translate(1303.763672 0)"/>
    </g>
   </g>
   <g id="legend_1">
    <g id="patch_7">
     <path d="M 56.28 309.897812 
L 181.98 309.897812 
L 181.98 246.663437 
L 56.28 246.663437 
z
" style="fill: #ffffff; stroke: #000000; stroke-linejoin: miter"/>
    </g>
    <g id="line2d_56">
     <path d="M 60.28 254.761875 
L 70.28 254.761875 
L 80.28 254.761875 
" style="fill: none; stroke: #ff7f0e; stroke-width: 1.5; stroke-linecap: round"/>
    </g>
    <g id="text_14">
     <!-- Method $u'$ -->
     <g style="fill: #262626" transform="translate(88.28 258.261875) scale(0.1 -0.1)">
      <defs>
       <path id="DejaVuSans-4d" d="M 628 4666 
L 1569 4666 
L 2759 1491 
L 3956 4666 
L 4897 4666 
L 4897 0 
L 4281 0 
L 4281 4097 
L 3078 897 
L 2444 897 
L 1241 4097 
L 1241 0 
L 628 0 
L 628 4666 
z
" transform="scale(0.015625)"/>
       <path id="DejaVuSans-68" d="M 3513 2113 
L 3513 0 
L 2938 0 
L 2938 2094 
Q 2938 2591 2744 2837 
Q 2550 3084 2163 3084 
Q 1697 3084 1428 2787 
Q 1159 2491 1159 1978 
L 1159 0 
L 581 0 
L 581 4863 
L 1159 4863 
L 1159 2956 
Q 1366 3272 1645 3428 
Q 1925 3584 2291 3584 
Q 2894 3584 3203 3211 
Q 3513 2838 3513 2113 
z
" transform="scale(0.015625)"/>
       <path id="DejaVuSans-64" d="M 2906 2969 
L 2906 4863 
L 3481 4863 
L 3481 0 
L 2906 0 
L 2906 525 
Q 2725 213 2448 61 
Q 2172 -91 1784 -91 
Q 1150 -91 751 415 
Q 353 922 353 1747 
Q 353 2572 751 3078 
Q 1150 3584 1784 3584 
Q 2172 3584 2448 3432 
Q 2725 3281 2906 2969 
z
M 947 1747 
Q 947 1113 1208 752 
Q 1469 391 1925 391 
Q 2381 391 2643 752 
Q 2906 1113 2906 1747 
Q 2906 2381 2643 2742 
Q 2381 3103 1925 3103 
Q 1469 3103 1208 2742 
Q 947 2381 947 1747 
z
" transform="scale(0.015625)"/>
      </defs>
      <use xlink:href="#DejaVuSans-4d" transform="translate(0 0.584375)"/>
      <use xlink:href="#DejaVuSans-65" transform="translate(86.279297 0.584375)"/>
      <use xlink:href="#DejaVuSans-74" transform="translate(147.802734 0.584375)"/>
      <use xlink:href="#DejaVuSans-68" transform="translate(187.011719 0.584375)"/>
      <use xlink:href="#DejaVuSans-6f" transform="translate(250.390625 0.584375)"/>
      <use xlink:href="#DejaVuSans-64" transform="translate(311.572266 0.584375)"/>
      <use xlink:href="#DejaVuSans-20" transform="translate(375.048828 0.584375)"/>
      <use xlink:href="#DejaVuSans-Oblique-75" transform="translate(406.835938 0.584375)"/>
      <use xlink:href="#Cmsy10-30" transform="translate(474.68099 38.865625) scale(0.7)"/>
     </g>
    </g>
    <g id="line2d_57">
     <path d="M 60.28 269.44 
L 70.28 269.44 
L 80.28 269.44 
" style="fill: none; stroke: #2ca02c; stroke-width: 1.5; stroke-linecap: round"/>
    </g>
    <g id="text_15">
     <!-- Linear $u'$ -->
     <g style="fill: #262626" transform="translate(88.28 272.94) scale(0.1 -0.1)">
      <defs>
       <path id="DejaVuSans-4c" d="M 628 4666 
L 1259 4666 
L 1259 531 
L 3531 531 
L 3531 0 
L 628 0 
L 628 4666 
z
" transform="scale(0.015625)"/>
       <path id="DejaVuSans-6e" d="M 3513 2113 
L 3513 0 
L 2938 0 
L 2938 2094 
Q 2938 2591 2744 2837 
Q 2550 3084 2163 3084 
Q 1697 3084 1428 2787 
Q 1159 2491 1159 1978 
L 1159 0 
L 581 0 
L 581 3500 
L 1159 3500 
L 1159 2956 
Q 1366 3272 1645 3428 
Q 1925 3584 2291 3584 
Q 2894 3584 3203 3211 
Q 3513 2838 3513 2113 
z
" transform="scale(0.015625)"/>
      </defs>
      <use xlink:href="#DejaVuSans-4c" transform="translate(0 0.584375)"/>
      <use xlink:href="#DejaVuSans-69" transform="translate(55.712891 0.584375)"/>
      <use xlink:href="#DejaVuSans-6e" transform="translate(83.496094 0.584375)"/>
      <use xlink:href="#DejaVuSans-65" transform="translate(146.875 0.584375)"/>
      <use xlink:href="#DejaVuSans-61" transform="translate(208.398438 0.584375)"/>
      <use xlink:href="#DejaVuSans-72" transform="translate(269.677734 0.584375)"/>
      <use xlink:href="#DejaVuSans-20" transform="translate(310.791016 0.584375)"/>
      <use xlink:href="#DejaVuSans-Oblique-75" transform="translate(342.578125 0.584375)"/>
      <use xlink:href="#Cmsy10-30" transform="translate(410.423177 38.865625) scale(0.7)"/>
     </g>
    </g>
    <g id="line2d_58">
     <path d="M 60.28 284.118125 
L 70.28 284.118125 
L 80.28 284.118125 
" style="fill: none; stroke-dasharray: 5.55,2.4; stroke-dashoffset: 0; stroke: #d62728; stroke-width: 1.5"/>
    </g>
    <g id="text_16">
     <!-- Hermite $C^1$ $u'$ -->
     <g style="fill: #262626" transform="translate(88.28 287.618125) scale(0.1 -0.1)">
      <defs>
       <path id="DejaVuSans-48" d="M 628 4666 
L 1259 4666 
L 1259 2753 
L 3553 2753 
L 3553 4666 
L 4184 4666 
L 4184 0 
L 3553 0 
L 3553 2222 
L 1259 2222 
L 1259 0 
L 628 0 
L 628 4666 
z
" transform="scale(0.015625)"/>
       <path id="DejaVuSans-6d" d="M 3328 2828 
Q 3544 3216 3844 3400 
Q 4144 3584 4550 3584 
Q 5097 3584 5394 3201 
Q 5691 2819 5691 2113 
L 5691 0 
L 5113 0 
L 5113 2094 
Q 5113 2597 4934 2840 
Q 4756 3084 4391 3084 
Q 3944 3084 3684 2787 
Q 3425 2491 3425 1978 
L 3425 0 
L 2847 0 
L 2847 2094 
Q 2847 2600 2669 2842 
Q 2491 3084 2119 3084 
Q 1678 3084 1418 2786 
Q 1159 2488 1159 1978 
L 1159 0 
L 581 0 
L 581 3500 
L 1159 3500 
L 1159 2956 
Q 1356 3278 1631 3431 
Q 1906 3584 2284 3584 
Q 2666 3584 2933 3390 
Q 3200 3197 3328 2828 
z
" transform="scale(0.015625)"/>
       <path id="DejaVuSans-Oblique-43" d="M 4447 4306 
L 4319 3641 
Q 4019 3944 3683 4091 
Q 3347 4238 2956 4238 
Q 2422 4238 2017 3981 
Q 1613 3725 1319 3200 
Q 1131 2863 1032 2486 
Q 934 2109 934 1728 
Q 934 1091 1264 756 
Q 1594 422 2222 422 
Q 2656 422 3056 561 
Q 3456 700 3834 978 
L 3688 231 
Q 3316 72 2936 -9 
Q 2556 -91 2175 -91 
Q 1278 -91 773 396 
Q 269 884 269 1753 
Q 269 2309 461 2846 
Q 653 3384 1013 3828 
Q 1394 4300 1883 4525 
Q 2372 4750 3022 4750 
Q 3422 4750 3780 4639 
Q 4138 4528 4447 4306 
z
" transform="scale(0.015625)"/>
      </defs>
      <use xlink:href="#DejaVuSans-48" transform="translate(0 0.684375)"/>
      <use xlink:href="#DejaVuSans-65" transform="translate(75.195312 0.684375)"/>
      <use xlink:href="#DejaVuSans-72" transform="translate(136.71875 0.684375)"/>
      <use xlink:href="#DejaVuSans-6d" transform="translate(177.832031 0.684375)"/>
      <use xlink:href="#DejaVuSans-69" transform="translate(275.244141 0.684375)"/>
      <use xlink:href="#DejaVuSans-74" transform="translate(303.027344 0.684375)"/>
      <use xlink:href="#DejaVuSans-65" transform="translate(342.236328 0.684375)"/>
      <use xlink:href="#DejaVuSans-20" transform="translate(403.759766 0.684375)"/>
      <use xlink:href="#DejaVuSans-Oblique-43" transform="translate(435.546875 0.684375)"/>
      <use xlink:href="#DejaVuSans-31" transform="translate(512.571615 38.965625) scale(0.7)"/>
      <use xlink:href="#DejaVuSans-20" transform="translate(559.842122 0.684375)"/>
      <use xlink:href="#DejaVuSans-Oblique-75" transform="translate(591.629232 0.684375)"/>
      <use xlink:href="#Cmsy10-30" transform="translate(659.474284 38.965625) scale(0.7)"/>
     </g>
    </g>
    <g id="line2d_59">
     <path d="M 60.28 300.297812 
L 70.28 300.297812 
L 80.28 300.297812 
" style="fill: none; stroke-dasharray: 9.6,2.4,1.5,2.4; stroke-dashoffset: 0; stroke: #9467bd; stroke-width: 1.5"/>
    </g>
    <g id="text_17">
     <!-- Cubic Spline $C^2$ $u'$ -->
     <g style="fill: #262626" transform="translate(88.28 303.797812) scale(0.1 -0.1)">
      <defs>
       <path id="DejaVuSans-43" d="M 4122 4306 
L 4122 3641 
Q 3803 3938 3442 4084 
Q 3081 4231 2675 4231 
Q 1875 4231 1450 3742 
Q 1025 3253 1025 2328 
Q 1025 1406 1450 917 
Q 1875 428 2675 428 
Q 3081 428 3442 575 
Q 3803 722 4122 1019 
L 4122 359 
Q 3791 134 3420 21 
Q 3050 -91 2638 -91 
Q 1578 -91 968 557 
Q 359 1206 359 2328 
Q 359 3453 968 4101 
Q 1578 4750 2638 4750 
Q 3056 4750 3426 4639 
Q 3797 4528 4122 4306 
z
" transform="scale(0.015625)"/>
       <path id="DejaVuSans-75" d="M 544 1381 
L 544 3500 
L 1119 3500 
L 1119 1403 
Q 1119 906 1312 657 
Q 1506 409 1894 409 
Q 2359 409 2629 706 
Q 2900 1003 2900 1516 
L 2900 3500 
L 3475 3500 
L 3475 0 
L 2900 0 
L 2900 538 
Q 2691 219 2414 64 
Q 2138 -91 1772 -91 
Q 1169 -91 856 284 
Q 544 659 544 1381 
z
M 1991 3584 
L 1991 3584 
z
" transform="scale(0.015625)"/>
       <path id="DejaVuSans-62" d="M 3116 1747 
Q 3116 2381 2855 2742 
Q 2594 3103 2138 3103 
Q 1681 3103 1420 2742 
Q 1159 2381 1159 1747 
Q 1159 1113 1420 752 
Q 1681 391 2138 391 
Q 2594 391 2855 752 
Q 3116 1113 3116 1747 
z
M 1159 2969 
Q 1341 3281 1617 3432 
Q 1894 3584 2278 3584 
Q 2916 3584 3314 3078 
Q 3713 2572 3713 1747 
Q 3713 922 3314 415 
Q 2916 -91 2278 -91 
Q 1894 -91 1617 61 
Q 1341 213 1159 525 
L 1159 0 
L 581 0 
L 581 4863 
L 1159 4863 
L 1159 2969 
z
" transform="scale(0.015625)"/>
       <path id="DejaVuSans-53" d="M 3425 4513 
L 3425 3897 
Q 3066 4069 2747 4153 
Q 2428 4238 2131 4238 
Q 1616 4238 1336 4038 
Q 1056 3838 1056 3469 
Q 1056 3159 1242 3001 
Q 1428 2844 1947 2747 
L 2328 2669 
Q 3034 2534 3370 2195 
Q 3706 1856 3706 1288 
Q 3706 609 3251 259 
Q 2797 -91 1919 -91 
Q 1588 -91 1214 -16 
Q 841 59 441 206 
L 441 856 
Q 825 641 1194 531 
Q 1563 422 1919 422 
Q 2459 422 2753 634 
Q 3047 847 3047 1241 
Q 3047 1584 2836 1778 
Q 2625 1972 2144 2069 
L 1759 2144 
Q 1053 2284 737 2584 
Q 422 2884 422 3419 
Q 422 4038 858 4394 
Q 1294 4750 2059 4750 
Q 2388 4750 2728 4690 
Q 3069 4631 3425 4513 
z
" transform="scale(0.015625)"/>
       <path id="DejaVuSans-70" d="M 1159 525 
L 1159 -1331 
L 581 -1331 
L 581 3500 
L 1159 3500 
L 1159 2969 
Q 1341 3281 1617 3432 
Q 1894 3584 2278 3584 
Q 2916 3584 3314 3078 
Q 3713 2572 3713 1747 
Q 3713 922 3314 415 
Q 2916 -91 2278 -91 
Q 1894 -91 1617 61 
Q 1341 213 1159 525 
z
M 3116 1747 
Q 3116 2381 2855 2742 
Q 2594 3103 2138 3103 
Q 1681 3103 1420 2742 
Q 1159 2381 1159 1747 
Q 1159 1113 1420 752 
Q 1681 391 2138 391 
Q 2594 391 2855 752 
Q 3116 1113 3116 1747 
z
" transform="scale(0.015625)"/>
      </defs>
      <use xlink:href="#DejaVuSans-43" transform="translate(0 0.765625)"/>
      <use xlink:href="#DejaVuSans-75" transform="translate(69.824219 0.765625)"/>
      <use xlink:href="#DejaVuSans-62" transform="translate(133.203125 0.765625)"/>
      <use xlink:href="#DejaVuSans-69" transform="translate(196.679688 0.765625)"/>
      <use xlink:href="#DejaVuSans-63" transform="translate(224.462891 0.765625)"/>
      <use xlink:href="#DejaVuSans-20" transform="translate(279.443359 0.765625)"/>
      <use xlink:href="#DejaVuSans-53" transform="translate(311.230469 0.765625)"/>
      <use xlink:href="#DejaVuSans-70" transform="translate(374.707031 0.765625)"/>
      <use xlink:href="#DejaVuSans-6c" transform="translate(438.183594 0.765625)"/>
      <use xlink:href="#DejaVuSans-69" transform="translate(465.966797 0.765625)"/>
      <use xlink:href="#DejaVuSans-6e" transform="translate(493.75 0.765625)"/>
      <use xlink:href="#DejaVuSans-65" transform="translate(557.128906 0.765625)"/>
      <use xlink:href="#DejaVuSans-20" transform="translate(618.652344 0.765625)"/>
      <use xlink:href="#DejaVuSans-Oblique-43" transform="translate(650.439453 0.765625)"/>
      <use xlink:href="#DejaVuSans-32" transform="translate(727.464193 39.046875) scale(0.7)"/>
      <use xlink:href="#DejaVuSans-20" transform="translate(774.734701 0.765625)"/>
      <use xlink:href="#DejaVuSans-Oblique-75" transform="translate(806.52181 0.765625)"/>
      <use xlink:href="#Cmsy10-30" transform="translate(874.366862 39.046875) scale(0.7)"/>
     </g>
    </g>
   </g>
  </g>
 </g>
 <defs>
  <clipPath id="p89eacac7a6">
   <rect x="51.28" y="23.837812" width="432.638946" height="291.06"/>
  </clipPath>
 </defs>
</svg>
