<?xml version="1.0" encoding="utf-8" standalone="no"?>
<!DOCTYPE svg PUBLIC "-//W3C//DTD SVG 1.1//EN"
  "http://www.w3.org/Graphics/SVG/1.1/DTD/svg11.dtd">
<svg xmlns:xlink="http://www.w3.org/1999/xlink" width="491.718946pt" height="350.889687pt" viewBox="0 0 491.718946 350.889687" xmlns="http://www.w3.org/2000/svg" version="1.1">
 <metadata>
  <rdf:RDF xmlns:dc="http://purl.org/dc/elements/1.1/" xmlns:cc="http://creativecommons.org/ns#" xmlns:rdf="http://www.w3.org/1999/02/22-rdf-syntax-ns#">
   <cc:Work>
    <dc:type rdf:resource="http://purl.org/dc/dcmitype/StillImage"/>
    <dc:date>2025-05-22T18:51:36.658320</dc:date>
    <dc:format>image/svg+xml</dc:format>
    <dc:creator>
     <cc:Agent>
      <dc:title>Matplotlib v3.10.0, https://matplotlib.org/</dc:title>
     </cc:Agent>
    </dc:creator>
   </cc:Work>
  </rdf:RDF>
 </metadata>
 <defs>
  <style type="text/css">*{stroke-linejoin: round; stroke-linecap: butt}</style>
 </defs>
 <g id="figure_1">
  <g id="patch_1">
   <path d="M 0 350.889687 
L 491.718946 350.889687 
L 491.718946 0 
L 0 0 
z
" style="fill: #ffffff"/>
  </g>
  <g id="axes_1">
   <g id="patch_2">
    <path d="M 51.16 314.897812 
L 484.518946 314.897812 
L 484.518946 23.837812 
L 51.16 23.837812 
z
" style="fill: #ffffff"/>
   </g>
   <g id="matplotlib.axis_1">
    <g id="xtick_1">
     <g id="line2d_1">
      <path d="M 70.858134 314.897812 
L 70.858134 23.837812 
" clip-path="url(#p3388b89d93)" style="fill: none; stroke-dasharray: 2.96,1.28; stroke-dashoffset: 0; stroke: #cccccc; stroke-opacity: 0.7; stroke-width: 0.8"/>
     </g>
     <g id="line2d_2"/>
     <g id="text_1">
      <!-- 0.0 -->
      <g style="fill: #262626" transform="translate(62.906571 325.99625) scale(0.1 -0.1)">
       <defs>
        <path id="DejaVuSans-30" d="M 2034 4250 
Q 1547 4250 1301 3770 
Q 1056 3291 1056 2328 
Q 1056 1369 1301 889 
Q 1547 409 2034 409 
Q 2525 409 2770 889 
Q 3016 1369 3016 2328 
Q 3016 3291 2770 3770 
Q 2525 4250 2034 4250 
z
M 2034 4750 
Q 2819 4750 3233 4129 
Q 3647 3509 3647 2328 
Q 3647 1150 3233 529 
Q 2819 -91 2034 -91 
Q 1250 -91 836 529 
Q 422 1150 422 2328 
Q 422 3509 836 4129 
Q 1250 4750 2034 4750 
z
" transform="scale(0.015625)"/>
        <path id="DejaVuSans-2e" d="M 684 794 
L 1344 794 
L 1344 0 
L 684 0 
L 684 794 
z
" transform="scale(0.015625)"/>
       </defs>
       <use xlink:href="#DejaVuSans-30"/>
       <use xlink:href="#DejaVuSans-2e" transform="translate(63.623047 0)"/>
       <use xlink:href="#DejaVuSans-30" transform="translate(95.410156 0)"/>
      </g>
     </g>
    </g>
    <g id="xtick_2">
     <g id="line2d_3">
      <path d="M 149.65067 314.897812 
L 149.65067 23.837812 
" clip-path="url(#p3388b89d93)" style="fill: none; stroke-dasharray: 2.96,1.28; stroke-dashoffset: 0; stroke: #cccccc; stroke-opacity: 0.7; stroke-width: 0.8"/>
     </g>
     <g id="line2d_4"/>
     <g id="text_2">
      <!-- 0.2 -->
      <g style="fill: #262626" transform="translate(141.699107 325.99625) scale(0.1 -0.1)">
       <defs>
        <path id="DejaVuSans-32" d="M 1228 531 
L 3431 531 
L 3431 0 
L 469 0 
L 469 531 
Q 828 903 1448 1529 
Q 2069 2156 2228 2338 
Q 2531 2678 2651 2914 
Q 2772 3150 2772 3378 
Q 2772 3750 2511 3984 
Q 2250 4219 1831 4219 
Q 1534 4219 1204 4116 
Q 875 4013 500 3803 
L 500 4441 
Q 881 4594 1212 4672 
Q 1544 4750 1819 4750 
Q 2544 4750 2975 4387 
Q 3406 4025 3406 3419 
Q 3406 3131 3298 2873 
Q 3191 2616 2906 2266 
Q 2828 2175 2409 1742 
Q 1991 1309 1228 531 
z
" transform="scale(0.015625)"/>
       </defs>
       <use xlink:href="#DejaVuSans-30"/>
       <use xlink:href="#DejaVuSans-2e" transform="translate(63.623047 0)"/>
       <use xlink:href="#DejaVuSans-32" transform="translate(95.410156 0)"/>
      </g>
     </g>
    </g>
    <g id="xtick_3">
     <g id="line2d_5">
      <path d="M 228.443205 314.897812 
L 228.443205 23.837812 
" clip-path="url(#p3388b89d93)" style="fill: none; stroke-dasharray: 2.96,1.28; stroke-dashoffset: 0; stroke: #cccccc; stroke-opacity: 0.7; stroke-width: 0.8"/>
     </g>
     <g id="line2d_6"/>
     <g id="text_3">
      <!-- 0.4 -->
      <g style="fill: #262626" transform="translate(220.491643 325.99625) scale(0.1 -0.1)">
       <defs>
        <path id="DejaVuSans-34" d="M 2419 4116 
L 825 1625 
L 2419 1625 
L 2419 4116 
z
M 2253 4666 
L 3047 4666 
L 3047 1625 
L 3713 1625 
L 3713 1100 
L 3047 1100 
L 3047 0 
L 2419 0 
L 2419 1100 
L 313 1100 
L 313 1709 
L 2253 4666 
z
" transform="scale(0.015625)"/>
       </defs>
       <use xlink:href="#DejaVuSans-30"/>
       <use xlink:href="#DejaVuSans-2e" transform="translate(63.623047 0)"/>
       <use xlink:href="#DejaVuSans-34" transform="translate(95.410156 0)"/>
      </g>
     </g>
    </g>
    <g id="xtick_4">
     <g id="line2d_7">
      <path d="M 307.235741 314.897812 
L 307.235741 23.837812 
" clip-path="url(#p3388b89d93)" style="fill: none; stroke-dasharray: 2.96,1.28; stroke-dashoffset: 0; stroke: #cccccc; stroke-opacity: 0.7; stroke-width: 0.8"/>
     </g>
     <g id="line2d_8"/>
     <g id="text_4">
      <!-- 0.6 -->
      <g style="fill: #262626" transform="translate(299.284178 325.99625) scale(0.1 -0.1)">
       <defs>
        <path id="DejaVuSans-36" d="M 2113 2584 
Q 1688 2584 1439 2293 
Q 1191 2003 1191 1497 
Q 1191 994 1439 701 
Q 1688 409 2113 409 
Q 2538 409 2786 701 
Q 3034 994 3034 1497 
Q 3034 2003 2786 2293 
Q 2538 2584 2113 2584 
z
M 3366 4563 
L 3366 3988 
Q 3128 4100 2886 4159 
Q 2644 4219 2406 4219 
Q 1781 4219 1451 3797 
Q 1122 3375 1075 2522 
Q 1259 2794 1537 2939 
Q 1816 3084 2150 3084 
Q 2853 3084 3261 2657 
Q 3669 2231 3669 1497 
Q 3669 778 3244 343 
Q 2819 -91 2113 -91 
Q 1303 -91 875 529 
Q 447 1150 447 2328 
Q 447 3434 972 4092 
Q 1497 4750 2381 4750 
Q 2619 4750 2861 4703 
Q 3103 4656 3366 4563 
z
" transform="scale(0.015625)"/>
       </defs>
       <use xlink:href="#DejaVuSans-30"/>
       <use xlink:href="#DejaVuSans-2e" transform="translate(63.623047 0)"/>
       <use xlink:href="#DejaVuSans-36" transform="translate(95.410156 0)"/>
      </g>
     </g>
    </g>
    <g id="xtick_5">
     <g id="line2d_9">
      <path d="M 386.028277 314.897812 
L 386.028277 23.837812 
" clip-path="url(#p3388b89d93)" style="fill: none; stroke-dasharray: 2.96,1.28; stroke-dashoffset: 0; stroke: #cccccc; stroke-opacity: 0.7; stroke-width: 0.8"/>
     </g>
     <g id="line2d_10"/>
     <g id="text_5">
      <!-- 0.8 -->
      <g style="fill: #262626" transform="translate(378.076714 325.99625) scale(0.1 -0.1)">
       <defs>
        <path id="DejaVuSans-38" d="M 2034 2216 
Q 1584 2216 1326 1975 
Q 1069 1734 1069 1313 
Q 1069 891 1326 650 
Q 1584 409 2034 409 
Q 2484 409 2743 651 
Q 3003 894 3003 1313 
Q 3003 1734 2745 1975 
Q 2488 2216 2034 2216 
z
M 1403 2484 
Q 997 2584 770 2862 
Q 544 3141 544 3541 
Q 544 4100 942 4425 
Q 1341 4750 2034 4750 
Q 2731 4750 3128 4425 
Q 3525 4100 3525 3541 
Q 3525 3141 3298 2862 
Q 3072 2584 2669 2484 
Q 3125 2378 3379 2068 
Q 3634 1759 3634 1313 
Q 3634 634 3220 271 
Q 2806 -91 2034 -91 
Q 1263 -91 848 271 
Q 434 634 434 1313 
Q 434 1759 690 2068 
Q 947 2378 1403 2484 
z
M 1172 3481 
Q 1172 3119 1398 2916 
Q 1625 2713 2034 2713 
Q 2441 2713 2670 2916 
Q 2900 3119 2900 3481 
Q 2900 3844 2670 4047 
Q 2441 4250 2034 4250 
Q 1625 4250 1398 4047 
Q 1172 3844 1172 3481 
z
" transform="scale(0.015625)"/>
       </defs>
       <use xlink:href="#DejaVuSans-30"/>
       <use xlink:href="#DejaVuSans-2e" transform="translate(63.623047 0)"/>
       <use xlink:href="#DejaVuSans-38" transform="translate(95.410156 0)"/>
      </g>
     </g>
    </g>
    <g id="xtick_6">
     <g id="line2d_11">
      <path d="M 464.820812 314.897812 
L 464.820812 23.837812 
" clip-path="url(#p3388b89d93)" style="fill: none; stroke-dasharray: 2.96,1.28; stroke-dashoffset: 0; stroke: #cccccc; stroke-opacity: 0.7; stroke-width: 0.8"/>
     </g>
     <g id="line2d_12"/>
     <g id="text_6">
      <!-- 1.0 -->
      <g style="fill: #262626" transform="translate(456.86925 325.99625) scale(0.1 -0.1)">
       <defs>
        <path id="DejaVuSans-31" d="M 794 531 
L 1825 531 
L 1825 4091 
L 703 3866 
L 703 4441 
L 1819 4666 
L 2450 4666 
L 2450 531 
L 3481 531 
L 3481 0 
L 794 0 
L 794 531 
z
" transform="scale(0.015625)"/>
       </defs>
       <use xlink:href="#DejaVuSans-31"/>
       <use xlink:href="#DejaVuSans-2e" transform="translate(63.623047 0)"/>
       <use xlink:href="#DejaVuSans-30" transform="translate(95.410156 0)"/>
      </g>
     </g>
    </g>
    <g id="text_7">
     <!-- $x$ -->
     <g style="fill: #262626" transform="translate(264.239473 341.194062) scale(0.12 -0.12)">
      <defs>
       <path id="DejaVuSans-Oblique-78" d="M 3841 3500 
L 2234 1784 
L 3219 0 
L 2559 0 
L 1819 1388 
L 531 0 
L -166 0 
L 1556 1844 
L 641 3500 
L 1300 3500 
L 1972 2234 
L 3144 3500 
L 3841 3500 
z
" transform="scale(0.015625)"/>
      </defs>
      <use xlink:href="#DejaVuSans-Oblique-78" transform="translate(0 0.3125)"/>
     </g>
    </g>
   </g>
   <g id="matplotlib.axis_2">
    <g id="ytick_1">
     <g id="line2d_13">
      <path d="M 51.16 274.512905 
L 484.518946 274.512905 
" clip-path="url(#p3388b89d93)" style="fill: none; stroke-dasharray: 2.96,1.28; stroke-dashoffset: 0; stroke: #cccccc; stroke-opacity: 0.7; stroke-width: 0.8"/>
     </g>
     <g id="line2d_14"/>
     <g id="text_8">
      <!-- $\mathdefault{10^{-5}}$ -->
      <g style="fill: #262626" transform="translate(24.16 278.312124) scale(0.1 -0.1)">
       <defs>
        <path id="DejaVuSans-2212" d="M 678 2272 
L 4684 2272 
L 4684 1741 
L 678 1741 
L 678 2272 
z
" transform="scale(0.015625)"/>
        <path id="DejaVuSans-35" d="M 691 4666 
L 3169 4666 
L 3169 4134 
L 1269 4134 
L 1269 2991 
Q 1406 3038 1543 3061 
Q 1681 3084 1819 3084 
Q 2600 3084 3056 2656 
Q 3513 2228 3513 1497 
Q 3513 744 3044 326 
Q 2575 -91 1722 -91 
Q 1428 -91 1123 -41 
Q 819 9 494 109 
L 494 744 
Q 775 591 1075 516 
Q 1375 441 1709 441 
Q 2250 441 2565 725 
Q 2881 1009 2881 1497 
Q 2881 1984 2565 2268 
Q 2250 2553 1709 2553 
Q 1456 2553 1204 2497 
Q 953 2441 691 2322 
L 691 4666 
z
" transform="scale(0.015625)"/>
       </defs>
       <use xlink:href="#DejaVuSans-31" transform="translate(0 0.684375)"/>
       <use xlink:href="#DejaVuSans-30" transform="translate(63.623047 0.684375)"/>
       <use xlink:href="#DejaVuSans-2212" transform="translate(128.203125 38.965625) scale(0.7)"/>
       <use xlink:href="#DejaVuSans-35" transform="translate(186.855469 38.965625) scale(0.7)"/>
      </g>
     </g>
    </g>
    <g id="ytick_2">
     <g id="line2d_15">
      <path d="M 51.16 206.493602 
L 484.518946 206.493602 
" clip-path="url(#p3388b89d93)" style="fill: none; stroke-dasharray: 2.96,1.28; stroke-dashoffset: 0; stroke: #cccccc; stroke-opacity: 0.7; stroke-width: 0.8"/>
     </g>
     <g id="line2d_16"/>
     <g id="text_9">
      <!-- $\mathdefault{10^{-4}}$ -->
      <g style="fill: #262626" transform="translate(24.16 210.292821) scale(0.1 -0.1)">
       <use xlink:href="#DejaVuSans-31" transform="translate(0 0.684375)"/>
       <use xlink:href="#DejaVuSans-30" transform="translate(63.623047 0.684375)"/>
       <use xlink:href="#DejaVuSans-2212" transform="translate(128.203125 38.965625) scale(0.7)"/>
       <use xlink:href="#DejaVuSans-34" transform="translate(186.855469 38.965625) scale(0.7)"/>
      </g>
     </g>
    </g>
    <g id="ytick_3">
     <g id="line2d_17">
      <path d="M 51.16 138.474299 
L 484.518946 138.474299 
" clip-path="url(#p3388b89d93)" style="fill: none; stroke-dasharray: 2.96,1.28; stroke-dashoffset: 0; stroke: #cccccc; stroke-opacity: 0.7; stroke-width: 0.8"/>
     </g>
     <g id="line2d_18"/>
     <g id="text_10">
      <!-- $\mathdefault{10^{-3}}$ -->
      <g style="fill: #262626" transform="translate(24.16 142.273518) scale(0.1 -0.1)">
       <defs>
        <path id="DejaVuSans-33" d="M 2597 2516 
Q 3050 2419 3304 2112 
Q 3559 1806 3559 1356 
Q 3559 666 3084 287 
Q 2609 -91 1734 -91 
Q 1441 -91 1130 -33 
Q 819 25 488 141 
L 488 750 
Q 750 597 1062 519 
Q 1375 441 1716 441 
Q 2309 441 2620 675 
Q 2931 909 2931 1356 
Q 2931 1769 2642 2001 
Q 2353 2234 1838 2234 
L 1294 2234 
L 1294 2753 
L 1863 2753 
Q 2328 2753 2575 2939 
Q 2822 3125 2822 3475 
Q 2822 3834 2567 4026 
Q 2313 4219 1838 4219 
Q 1578 4219 1281 4162 
Q 984 4106 628 3988 
L 628 4550 
Q 988 4650 1302 4700 
Q 1616 4750 1894 4750 
Q 2613 4750 3031 4423 
Q 3450 4097 3450 3541 
Q 3450 3153 3228 2886 
Q 3006 2619 2597 2516 
z
" transform="scale(0.015625)"/>
       </defs>
       <use xlink:href="#DejaVuSans-31" transform="translate(0 0.765625)"/>
       <use xlink:href="#DejaVuSans-30" transform="translate(63.623047 0.765625)"/>
       <use xlink:href="#DejaVuSans-2212" transform="translate(128.203125 39.046875) scale(0.7)"/>
       <use xlink:href="#DejaVuSans-33" transform="translate(186.855469 39.046875) scale(0.7)"/>
      </g>
     </g>
    </g>
    <g id="ytick_4">
     <g id="line2d_19">
      <path d="M 51.16 70.454996 
L 484.518946 70.454996 
" clip-path="url(#p3388b89d93)" style="fill: none; stroke-dasharray: 2.96,1.28; stroke-dashoffset: 0; stroke: #cccccc; stroke-opacity: 0.7; stroke-width: 0.8"/>
     </g>
     <g id="line2d_20"/>
     <g id="text_11">
      <!-- $\mathdefault{10^{-2}}$ -->
      <g style="fill: #262626" transform="translate(24.16 74.254215) scale(0.1 -0.1)">
       <use xlink:href="#DejaVuSans-31" transform="translate(0 0.765625)"/>
       <use xlink:href="#DejaVuSans-30" transform="translate(63.623047 0.765625)"/>
       <use xlink:href="#DejaVuSans-2212" transform="translate(128.203125 39.046875) scale(0.7)"/>
       <use xlink:href="#DejaVuSans-32" transform="translate(186.855469 39.046875) scale(0.7)"/>
      </g>
     </g>
    </g>
    <g id="ytick_5">
     <g id="line2d_21"/>
    </g>
    <g id="ytick_6">
     <g id="line2d_22"/>
    </g>
    <g id="ytick_7">
     <g id="line2d_23"/>
    </g>
    <g id="ytick_8">
     <g id="line2d_24"/>
    </g>
    <g id="ytick_9">
     <g id="line2d_25"/>
    </g>
    <g id="ytick_10">
     <g id="line2d_26"/>
    </g>
    <g id="ytick_11">
     <g id="line2d_27"/>
    </g>
    <g id="ytick_12">
     <g id="line2d_28"/>
    </g>
    <g id="ytick_13">
     <g id="line2d_29"/>
    </g>
    <g id="ytick_14">
     <g id="line2d_30"/>
    </g>
    <g id="ytick_15">
     <g id="line2d_31"/>
    </g>
    <g id="ytick_16">
     <g id="line2d_32"/>
    </g>
    <g id="ytick_17">
     <g id="line2d_33"/>
    </g>
    <g id="ytick_18">
     <g id="line2d_34"/>
    </g>
    <g id="ytick_19">
     <g id="line2d_35"/>
    </g>
    <g id="ytick_20">
     <g id="line2d_36"/>
    </g>
    <g id="ytick_21">
     <g id="line2d_37"/>
    </g>
    <g id="ytick_22">
     <g id="line2d_38"/>
    </g>
    <g id="ytick_23">
     <g id="line2d_39"/>
    </g>
    <g id="ytick_24">
     <g id="line2d_40"/>
    </g>
    <g id="ytick_25">
     <g id="line2d_41"/>
    </g>
    <g id="ytick_26">
     <g id="line2d_42"/>
    </g>
    <g id="ytick_27">
     <g id="line2d_43"/>
    </g>
    <g id="ytick_28">
     <g id="line2d_44"/>
    </g>
    <g id="ytick_29">
     <g id="line2d_45"/>
    </g>
    <g id="ytick_30">
     <g id="line2d_46"/>
    </g>
    <g id="ytick_31">
     <g id="line2d_47"/>
    </g>
    <g id="ytick_32">
     <g id="line2d_48"/>
    </g>
    <g id="ytick_33">
     <g id="line2d_49"/>
    </g>
    <g id="ytick_34">
     <g id="line2d_50"/>
    </g>
    <g id="ytick_35">
     <g id="line2d_51"/>
    </g>
    <g id="ytick_36">
     <g id="line2d_52"/>
    </g>
    <g id="ytick_37">
     <g id="line2d_53"/>
    </g>
    <g id="ytick_38">
     <g id="line2d_54"/>
    </g>
    <g id="text_12">
     <!-- $|u_{exact}(x) - u_{approx}(x)|$ -->
     <g style="fill: #262626" transform="translate(16.44 231.467812) rotate(-90) scale(0.12 -0.12)">
      <defs>
       <path id="DejaVuSans-7c" d="M 1344 4891 
L 1344 -1509 
L 813 -1509 
L 813 4891 
L 1344 4891 
z
" transform="scale(0.015625)"/>
       <path id="DejaVuSans-Oblique-75" d="M 428 1388 
L 838 3500 
L 1416 3500 
L 1006 1409 
Q 975 1256 961 1147 
Q 947 1038 947 966 
Q 947 700 1109 554 
Q 1272 409 1569 409 
Q 2031 409 2368 721 
Q 2706 1034 2809 1563 
L 3194 3500 
L 3769 3500 
L 3091 0 
L 2516 0 
L 2631 550 
Q 2388 244 2052 76 
Q 1716 -91 1338 -91 
Q 878 -91 622 161 
Q 366 413 366 863 
Q 366 956 381 1097 
Q 397 1238 428 1388 
z
" transform="scale(0.015625)"/>
       <path id="DejaVuSans-Oblique-65" d="M 3078 2063 
Q 3088 2113 3092 2166 
Q 3097 2219 3097 2272 
Q 3097 2653 2873 2875 
Q 2650 3097 2266 3097 
Q 1838 3097 1509 2826 
Q 1181 2556 1013 2059 
L 3078 2063 
z
M 3578 1613 
L 903 1613 
Q 884 1494 878 1425 
Q 872 1356 872 1306 
Q 872 872 1139 634 
Q 1406 397 1894 397 
Q 2269 397 2603 481 
Q 2938 566 3225 728 
L 3116 159 
Q 2806 34 2476 -28 
Q 2147 -91 1806 -91 
Q 1078 -91 686 257 
Q 294 606 294 1247 
Q 294 1794 489 2264 
Q 684 2734 1063 3103 
Q 1306 3334 1642 3459 
Q 1978 3584 2356 3584 
Q 2950 3584 3301 3228 
Q 3653 2872 3653 2272 
Q 3653 2128 3634 1964 
Q 3616 1800 3578 1613 
z
" transform="scale(0.015625)"/>
       <path id="DejaVuSans-Oblique-61" d="M 3438 1997 
L 3047 0 
L 2472 0 
L 2578 531 
Q 2325 219 2001 64 
Q 1678 -91 1281 -91 
Q 834 -91 548 182 
Q 263 456 263 884 
Q 263 1497 752 1853 
Q 1241 2209 2100 2209 
L 2900 2209 
L 2931 2363 
Q 2938 2388 2941 2417 
Q 2944 2447 2944 2509 
Q 2944 2788 2717 2942 
Q 2491 3097 2081 3097 
Q 1800 3097 1504 3025 
Q 1209 2953 897 2809 
L 997 3341 
Q 1322 3463 1633 3523 
Q 1944 3584 2234 3584 
Q 2853 3584 3176 3315 
Q 3500 3047 3500 2534 
Q 3500 2431 3484 2292 
Q 3469 2153 3438 1997 
z
M 2816 1759 
L 2241 1759 
Q 1534 1759 1195 1570 
Q 856 1381 856 984 
Q 856 709 1029 553 
Q 1203 397 1509 397 
Q 1978 397 2328 733 
Q 2678 1069 2791 1631 
L 2816 1759 
z
" transform="scale(0.015625)"/>
       <path id="DejaVuSans-Oblique-63" d="M 3431 3366 
L 3316 2797 
Q 3109 2947 2876 3022 
Q 2644 3097 2394 3097 
Q 2119 3097 1870 3000 
Q 1622 2903 1453 2725 
Q 1184 2453 1037 2087 
Q 891 1722 891 1331 
Q 891 859 1127 628 
Q 1363 397 1844 397 
Q 2081 397 2348 469 
Q 2616 541 2906 684 
L 2797 116 
Q 2547 13 2283 -39 
Q 2019 -91 1741 -91 
Q 1044 -91 669 257 
Q 294 606 294 1253 
Q 294 1797 489 2255 
Q 684 2713 1069 3078 
Q 1331 3328 1684 3456 
Q 2038 3584 2456 3584 
Q 2700 3584 2940 3529 
Q 3181 3475 3431 3366 
z
" transform="scale(0.015625)"/>
       <path id="DejaVuSans-Oblique-74" d="M 2706 3500 
L 2619 3053 
L 1472 3053 
L 1100 1153 
Q 1081 1047 1072 975 
Q 1063 903 1063 863 
Q 1063 663 1183 572 
Q 1303 481 1569 481 
L 2150 481 
L 2053 0 
L 1503 0 
Q 991 0 739 200 
Q 488 400 488 806 
Q 488 878 497 964 
Q 506 1050 525 1153 
L 897 3053 
L 409 3053 
L 500 3500 
L 978 3500 
L 1172 4494 
L 1747 4494 
L 1556 3500 
L 2706 3500 
z
" transform="scale(0.015625)"/>
       <path id="DejaVuSans-28" d="M 1984 4856 
Q 1566 4138 1362 3434 
Q 1159 2731 1159 2009 
Q 1159 1288 1364 580 
Q 1569 -128 1984 -844 
L 1484 -844 
Q 1016 -109 783 600 
Q 550 1309 550 2009 
Q 550 2706 781 3412 
Q 1013 4119 1484 4856 
L 1984 4856 
z
" transform="scale(0.015625)"/>
       <path id="DejaVuSans-29" d="M 513 4856 
L 1013 4856 
Q 1481 4119 1714 3412 
Q 1947 2706 1947 2009 
Q 1947 1309 1714 600 
Q 1481 -109 1013 -844 
L 513 -844 
Q 928 -128 1133 580 
Q 1338 1288 1338 2009 
Q 1338 2731 1133 3434 
Q 928 4138 513 4856 
z
" transform="scale(0.015625)"/>
       <path id="DejaVuSans-Oblique-70" d="M 3175 2156 
Q 3175 2616 2975 2859 
Q 2775 3103 2400 3103 
Q 2144 3103 1911 2972 
Q 1678 2841 1497 2591 
Q 1319 2344 1212 1994 
Q 1106 1644 1106 1300 
Q 1106 863 1306 627 
Q 1506 391 1875 391 
Q 2147 391 2380 519 
Q 2613 647 2778 891 
Q 2956 1147 3065 1494 
Q 3175 1841 3175 2156 
z
M 1394 2969 
Q 1625 3272 1939 3428 
Q 2253 3584 2638 3584 
Q 3175 3584 3472 3232 
Q 3769 2881 3769 2247 
Q 3769 1728 3584 1258 
Q 3400 788 3053 416 
Q 2822 169 2531 39 
Q 2241 -91 1919 -91 
Q 1547 -91 1294 64 
Q 1041 219 916 525 
L 556 -1331 
L -19 -1331 
L 922 3500 
L 1497 3500 
L 1394 2969 
z
" transform="scale(0.015625)"/>
       <path id="DejaVuSans-Oblique-72" d="M 2853 2969 
Q 2766 3016 2653 3041 
Q 2541 3066 2413 3066 
Q 1953 3066 1609 2717 
Q 1266 2369 1153 1784 
L 800 0 
L 225 0 
L 909 3500 
L 1484 3500 
L 1375 2956 
Q 1603 3259 1920 3421 
Q 2238 3584 2597 3584 
Q 2691 3584 2781 3573 
Q 2872 3563 2963 3538 
L 2853 2969 
z
" transform="scale(0.015625)"/>
       <path id="DejaVuSans-Oblique-6f" d="M 1625 -91 
Q 1009 -91 651 289 
Q 294 669 294 1325 
Q 294 1706 417 2101 
Q 541 2497 738 2766 
Q 1047 3184 1428 3384 
Q 1809 3584 2291 3584 
Q 2888 3584 3255 3212 
Q 3622 2841 3622 2241 
Q 3622 1825 3500 1412 
Q 3378 1000 3181 728 
Q 2875 309 2494 109 
Q 2113 -91 1625 -91 
z
M 891 1344 
Q 891 869 1089 633 
Q 1288 397 1691 397 
Q 2269 397 2648 901 
Q 3028 1406 3028 2181 
Q 3028 2634 2825 2865 
Q 2622 3097 2228 3097 
Q 1903 3097 1650 2945 
Q 1397 2794 1197 2484 
Q 1050 2253 970 1956 
Q 891 1659 891 1344 
z
" transform="scale(0.015625)"/>
      </defs>
      <use xlink:href="#DejaVuSans-7c" transform="translate(0 0.578125)"/>
      <use xlink:href="#DejaVuSans-Oblique-75" transform="translate(33.691406 0.578125)"/>
      <use xlink:href="#DejaVuSans-Oblique-65" transform="translate(97.070312 -15.828125) scale(0.7)"/>
      <use xlink:href="#DejaVuSans-Oblique-78" transform="translate(140.136719 -15.828125) scale(0.7)"/>
      <use xlink:href="#DejaVuSans-Oblique-61" transform="translate(181.5625 -15.828125) scale(0.7)"/>
      <use xlink:href="#DejaVuSans-Oblique-63" transform="translate(224.458008 -15.828125) scale(0.7)"/>
      <use xlink:href="#DejaVuSans-Oblique-74" transform="translate(262.944336 -15.828125) scale(0.7)"/>
      <use xlink:href="#DejaVuSans-28" transform="translate(293.125 0.578125)"/>
      <use xlink:href="#DejaVuSans-Oblique-78" transform="translate(332.138672 0.578125)"/>
      <use xlink:href="#DejaVuSans-29" transform="translate(391.318359 0.578125)"/>
      <use xlink:href="#DejaVuSans-2212" transform="translate(449.814453 0.578125)"/>
      <use xlink:href="#DejaVuSans-Oblique-75" transform="translate(553.085938 0.578125)"/>
      <use xlink:href="#DejaVuSans-Oblique-61" transform="translate(616.464844 -15.828125) scale(0.7)"/>
      <use xlink:href="#DejaVuSans-Oblique-70" transform="translate(659.360352 -15.828125) scale(0.7)"/>
      <use xlink:href="#DejaVuSans-Oblique-70" transform="translate(703.793945 -15.828125) scale(0.7)"/>
      <use xlink:href="#DejaVuSans-Oblique-72" transform="translate(748.227539 -15.828125) scale(0.7)"/>
      <use xlink:href="#DejaVuSans-Oblique-6f" transform="translate(777.006836 -15.828125) scale(0.7)"/>
      <use xlink:href="#DejaVuSans-Oblique-78" transform="translate(819.833984 -15.828125) scale(0.7)"/>
      <use xlink:href="#DejaVuSans-28" transform="translate(863.994141 0.578125)"/>
      <use xlink:href="#DejaVuSans-Oblique-78" transform="translate(903.007812 0.578125)"/>
      <use xlink:href="#DejaVuSans-29" transform="translate(962.1875 0.578125)"/>
      <use xlink:href="#DejaVuSans-7c" transform="translate(1001.201172 0.578125)"/>
     </g>
    </g>
   </g>
   <g id="line2d_55">
    <path d="M 70.858134 50.175916 
L 75.604672 57.409743 
L 80.35121 65.117429 
L 85.097749 73.268954 
L 97.755184 95.671446 
L 100.919543 100.600461 
L 102.501723 102.78385 
L 104.083902 104.724978 
L 105.666081 106.385128 
L 107.248261 107.73142 
L 108.83044 108.740133 
L 110.41262 109.399394 
L 111.994799 109.710664 
L 113.576979 109.688654 
L 115.159158 109.359702 
L 116.741337 108.758998 
L 118.323517 107.927245 
L 119.905696 106.907366 
L 123.070055 104.470105 
L 134.145311 95.069464 
L 137.30967 92.788114 
L 140.474029 90.846368 
L 143.638388 89.296616 
L 146.802747 88.187561 
L 148.384926 87.814835 
L 149.967105 87.573695 
L 151.549285 87.473511 
L 153.131464 87.525431 
L 154.713644 87.742948 
L 156.295823 88.142634 
L 157.878003 88.745135 
L 159.460182 89.57658 
L 161.042361 90.6706 
L 162.624541 92.071373 
L 164.20672 93.838344 
L 165.7889 96.053945 
L 167.371079 98.836869 
L 168.953259 102.366605 
L 170.535438 106.693086 
L 172.117617 111.468683 
L 173.699797 116.787159 
L 175.281976 122.822964 
L 176.864156 129.85488 
L 178.446335 138.370881 
L 180.028515 149.350624 
L 181.610694 165.28249 
L 183.192873 197.110457 
L 184.775053 204.448255 
L 186.357232 171.145674 
L 187.939412 156.97925 
L 189.521591 148.229503 
L 191.103771 142.102928 
L 192.68595 137.537988 
L 194.26813 134.016297 
L 195.850309 131.245815 
L 197.432488 129.045883 
L 199.014668 127.29709 
L 200.596847 125.916514 
L 202.179027 124.844319 
L 203.761206 124.035989 
L 205.343386 123.457549 
L 206.925565 123.082508 
L 208.507744 122.889798 
L 210.089924 122.862354 
L 211.672103 122.986089 
L 213.254283 123.249127 
L 214.836462 123.64121 
L 218.000821 124.776748 
L 221.16518 126.326204 
L 224.329539 128.223035 
L 227.493898 130.388881 
L 236.986974 137.256952 
L 238.569154 138.20611 
L 240.151333 139.013143 
L 241.733512 139.640024 
L 243.315692 140.048941 
L 244.897871 140.204686 
L 246.480051 140.077353 
L 248.06223 139.64499 
L 249.64441 138.895728 
L 251.226589 137.828952 
L 252.808768 136.455275 
L 254.390948 134.795294 
L 255.973127 132.87742 
L 257.555307 130.735203 
L 260.719666 125.921706 
L 263.884024 120.632811 
L 268.630563 112.359804 
L 270.212742 109.969338 
L 271.794922 107.912916 
L 273.377101 106.1325 
L 274.95928 104.584536 
L 276.54146 103.23552 
L 278.123639 102.059134 
L 279.705819 101.034341 
L 282.870178 99.374262 
L 286.034537 98.151199 
L 289.198895 97.291842 
L 292.363254 96.742604 
L 295.527613 96.463028 
L 298.691972 96.421619 
L 301.856331 96.593063 
L 305.02069 96.956258 
L 308.185049 97.492833 
L 312.931587 98.586112 
L 317.678125 99.975926 
L 322.424663 101.601493 
L 330.335561 104.626203 
L 338.246458 107.610823 
L 342.992996 109.093878 
L 346.157355 109.838311 
L 349.321714 110.316781 
L 352.486073 110.471298 
L 355.650431 110.252066 
L 358.81479 109.623185 
L 361.979149 108.567243 
L 365.143508 107.08757 
L 368.307867 105.37713 
L 371.472226 104.055154 
L 374.636585 103.114323 
L 377.800943 102.503729 
L 380.965302 102.1867 
L 384.129661 102.136734 
L 387.29402 102.334914 
L 390.458379 102.768221 
L 393.622738 103.428433 
L 396.787097 104.311424 
L 399.951456 105.416741 
L 403.115814 106.74741 
L 406.280173 108.309929 
L 409.444532 110.114446 
L 412.608891 112.17513 
L 415.77325 114.51077 
L 418.937609 117.145663 
L 422.101968 120.110896 
L 425.266326 123.446178 
L 428.430685 127.202495 
L 431.595044 131.446018 
L 434.759403 136.264008 
L 437.923762 141.774059 
L 441.088121 148.13918 
L 442.6703 151.711773 
L 444.25248 155.593762 
L 445.834659 159.833359 
L 447.416838 164.491441 
L 448.999018 169.646398 
L 450.581197 175.401523 
L 452.163377 181.896786 
L 453.745556 189.328508 
L 455.327736 197.984302 
L 456.909915 208.310162 
L 458.492094 221.053376 
L 460.074274 237.614988 
L 461.656453 261.140587 
L 463.238633 301.667812 
L 463.239807 351.889687 
L 463.239807 351.889687 
" clip-path="url(#p3388b89d93)" style="fill: none; stroke: #ff7f0e; stroke-width: 1.5; stroke-linecap: round"/>
   </g>
   <g id="line2d_56">
    <path d="M 70.858134 50.175916 
L 74.022493 55.513523 
L 77.186852 61.575687 
L 78.769031 64.95796 
L 80.35121 68.636056 
L 81.93339 72.676039 
L 83.515569 77.169679 
L 85.097749 82.249889 
L 86.679928 88.119842 
L 88.262108 95.113493 
L 89.844287 103.839736 
L 91.426467 115.603907 
L 93.008646 134.178394 
L 94.590825 187.138586 
L 96.173005 148.040402 
L 97.755184 124.74637 
L 99.337364 112.461106 
L 100.919543 104.243673 
L 102.501723 98.17268 
L 104.083902 93.436328 
L 105.666081 89.614888 
L 107.248261 86.463227 
L 108.83044 83.825945 
L 110.41262 81.598565 
L 111.994799 79.707705 
L 113.576979 78.100075 
L 115.159158 76.73599 
L 116.741337 75.585327 
L 118.323517 74.624925 
L 119.905696 73.836839 
L 121.487876 73.207153 
L 123.070055 72.725148 
L 124.652235 72.382724 
L 126.234414 72.17399 
L 127.816593 72.094984 
L 129.398773 72.143496 
L 130.980952 72.318969 
L 132.563132 72.622475 
L 134.145311 73.056763 
L 135.727491 73.626377 
L 137.30967 74.337869 
L 138.891849 75.200109 
L 140.474029 76.224743 
L 142.056208 77.426844 
L 143.638388 78.825835 
L 145.220567 80.446827 
L 146.802747 82.322586 
L 148.384926 84.49651 
L 149.967105 87.027276 
L 151.549285 89.996454 
L 153.131464 93.521604 
L 154.713644 97.780465 
L 156.295823 103.059762 
L 157.878003 109.866582 
L 159.460182 119.232926 
L 161.042361 133.842136 
L 162.624541 166.357243 
L 164.20672 163.86227 
L 165.7889 131.475767 
L 167.371079 115.968904 
L 168.953259 105.555045 
L 170.535438 108.539819 
L 172.117617 116.810569 
L 173.699797 127.732711 
L 175.281976 144.202066 
L 176.864156 180.973424 
L 178.446335 172.001786 
L 180.028515 143.180278 
L 181.610694 129.453459 
L 183.192873 120.540597 
L 184.775053 114.036454 
L 186.357232 108.985513 
L 187.939412 104.909858 
L 189.521591 101.535978 
L 191.103771 98.692691 
L 192.68595 96.265774 
L 194.26813 94.175249 
L 195.850309 92.362979 
L 197.432488 90.785415 
L 199.014668 89.40913 
L 200.596847 88.207945 
L 202.179027 87.161006 
L 205.343386 85.465557 
L 208.507744 84.221036 
L 211.672103 83.357169 
L 214.836462 82.824194 
L 218.000821 82.586416 
L 221.16518 82.61825 
L 224.329539 82.901702 
L 227.493898 83.424747 
L 230.658256 84.180289 
L 233.822615 85.16552 
L 236.986974 86.381577 
L 240.151333 87.833448 
L 243.315692 89.530105 
L 246.480051 91.484871 
L 249.64441 93.716065 
L 252.808768 96.248009 
L 255.973127 99.112534 
L 259.137486 102.351225 
L 262.301845 106.018816 
L 265.466204 110.188476 
L 267.048383 112.491489 
L 268.630563 116.860686 
L 270.212742 124.371905 
L 271.794922 134.382678 
L 273.377101 149.469571 
L 274.95928 181.328055 
L 276.54146 183.849146 
L 278.123639 150.788041 
L 279.705819 135.748829 
L 281.287998 125.965543 
L 282.870178 118.743295 
L 284.452357 113.046538 
L 286.034537 108.366428 
L 287.616716 104.415044 
L 289.198895 101.01364 
L 290.781075 98.0437 
L 292.363254 95.422687 
L 293.945434 93.090898 
L 295.527613 91.003833 
L 297.109793 89.127523 
L 298.691972 87.435522 
L 301.856331 84.525003 
L 305.02069 82.149632 
L 308.185049 80.228707 
L 311.349407 78.708711 
L 314.513766 77.555155 
L 317.678125 76.748 
L 320.842484 76.279254 
L 324.006843 76.152078 
L 327.171202 76.381195 
L 330.335561 76.99467 
L 333.499919 78.037576 
L 335.082099 78.740331 
L 336.664278 79.578577 
L 338.246458 80.566501 
L 339.828637 81.72172 
L 341.410817 83.06633 
L 342.992996 84.628408 
L 344.575175 86.444215 
L 346.157355 88.56155 
L 347.739534 91.04503 
L 349.321714 93.984827 
L 350.903893 97.511951 
L 352.486073 101.82705 
L 354.068252 107.260186 
L 355.650431 114.412839 
L 357.232611 124.571449 
L 358.81479 141.430765 
L 360.39697 191.055312 
L 361.979149 153.170552 
L 363.561329 127.990592 
L 365.143508 114.050151 
L 366.725687 111.502848 
L 368.307867 151.165843 
L 369.890046 134.442403 
L 371.472226 107.038919 
L 373.054405 93.362396 
L 374.636585 84.267491 
L 376.218764 77.499246 
L 377.800943 72.145306 
L 379.383123 67.744818 
L 380.965302 64.03239 
L 382.547482 60.841211 
L 384.129661 58.059636 
L 385.711841 55.60932 
L 387.29402 53.433226 
L 388.8762 51.488588 
L 390.458379 49.742567 
L 393.622738 46.748766 
L 396.787097 44.301718 
L 399.951456 42.302129 
L 403.115814 40.68213 
L 406.280173 39.394601 
L 409.444532 38.40697 
L 412.608891 37.697492 
L 415.77325 37.25303 
L 418.937609 37.067812 
L 422.101968 37.142914 
L 425.266326 37.486348 
L 428.430685 38.113809 
L 431.595044 39.05018 
L 434.759403 40.332171 
L 437.923762 42.012684 
L 441.088121 44.168165 
L 442.6703 45.457319 
L 444.25248 46.911439 
L 445.834659 48.554171 
L 447.416838 50.415526 
L 448.999018 52.534297 
L 450.581197 54.961755 
L 452.163377 57.767532 
L 453.745556 61.049455 
L 455.327736 64.95102 
L 456.909915 69.694928 
L 458.492094 75.654546 
L 460.074274 83.530133 
L 461.656453 94.894236 
L 463.238633 114.76544 
L 463.244163 351.889687 
L 463.244163 351.889687 
" clip-path="url(#p3388b89d93)" style="fill: none; stroke: #2ca02c; stroke-width: 1.5; stroke-linecap: round"/>
   </g>
   <g id="line2d_57">
    <path d="M 70.858134 50.175916 
L 74.022493 55.422933 
L 77.186852 61.148004 
L 80.35121 67.470634 
L 83.515569 74.567006 
L 85.097749 78.485949 
L 86.679928 82.714252 
L 88.262108 87.318164 
L 89.844287 92.389339 
L 91.426467 98.059968 
L 93.008646 104.531233 
L 94.590825 112.132246 
L 96.173005 121.459597 
L 97.755184 133.781828 
L 99.337364 152.709329 
L 100.919543 202.711845 
L 102.501723 170.228595 
L 104.083902 147.015904 
L 105.666081 135.373067 
L 107.248261 127.943728 
L 108.83044 122.74185 
L 110.41262 118.938574 
L 111.994799 116.110033 
L 113.576979 114.012048 
L 115.159158 112.492904 
L 116.741337 111.453757 
L 118.323517 110.828607 
L 119.905696 110.573415 
L 121.487876 110.659908 
L 123.070055 111.072052 
L 124.652235 111.804185 
L 126.234414 112.860352 
L 127.816593 114.254678 
L 129.398773 116.01287 
L 130.980952 118.17521 
L 132.563132 120.801859 
L 134.145311 123.982117 
L 135.727491 127.851186 
L 137.30967 132.622544 
L 138.891849 138.65682 
L 140.474029 146.630685 
L 142.056208 158.053491 
L 143.638388 177.643813 
L 145.220567 272.205559 
L 146.802747 179.768174 
L 148.384926 158.564097 
L 149.967105 146.35368 
L 151.549285 137.79268 
L 153.131464 131.244646 
L 154.713644 125.988596 
L 156.295823 121.642993 
L 157.878003 117.981943 
L 159.460182 114.861251 
L 161.042361 112.183926 
L 162.624541 109.882321 
L 164.20672 107.90816 
L 165.7889 106.22664 
L 167.371079 104.81281 
L 168.953259 103.6493 
L 170.535438 102.734191 
L 172.117617 102.071077 
L 173.699797 101.636284 
L 175.281976 101.411329 
L 176.864156 101.382825 
L 178.446335 101.541529 
L 180.028515 101.881741 
L 181.610694 102.400931 
L 183.192873 103.099581 
L 184.775053 103.981199 
L 186.357232 105.052506 
L 187.939412 106.32384 
L 189.521591 107.809803 
L 191.103771 109.530273 
L 192.68595 111.511914 
L 194.26813 113.790484 
L 195.850309 116.414399 
L 197.432488 119.450451 
L 199.014668 122.993383 
L 200.596847 127.182886 
L 202.179027 132.236153 
L 203.761206 138.516907 
L 205.343386 146.704442 
L 206.925565 158.310528 
L 208.507744 178.057269 
L 210.089924 272.934257 
L 211.672103 180.386274 
L 213.254283 159.257102 
L 214.836462 147.092322 
L 216.418642 138.550057 
L 218.000821 131.994105 
L 219.583 126.703164 
L 221.16518 122.295007 
L 222.747359 118.542702 
L 224.329539 115.300664 
L 225.911718 112.470121 
L 227.493898 109.981204 
L 229.076077 107.782902 
L 230.658256 105.837071 
L 232.240436 104.114694 
L 233.822615 102.593449 
L 235.404795 101.256081 
L 236.986974 100.089293 
L 238.569154 99.082971 
L 240.151333 98.229649 
L 241.733512 97.524148 
L 243.315692 96.963331 
L 244.897871 96.545976 
L 246.480051 96.272732 
L 248.06223 96.146155 
L 249.64441 96.170849 
L 251.226589 96.353699 
L 252.808768 96.704235 
L 254.390948 97.235168 
L 255.973127 97.963166 
L 257.555307 98.909967 
L 259.137486 100.104008 
L 260.719666 101.582876 
L 262.301845 103.39706 
L 263.884024 105.615983 
L 265.466204 108.338112 
L 267.048383 111.709018 
L 270.212742 120.168896 
L 276.54146 137.502659 
L 278.123639 141.325717 
L 279.705819 144.620465 
L 281.287998 147.185276 
L 282.870178 148.841035 
L 284.452357 149.475913 
L 286.034537 149.079119 
L 287.616716 147.744478 
L 289.198895 145.641633 
L 290.781075 142.971688 
L 293.945434 136.674079 
L 300.274151 123.563963 
L 303.43851 117.628438 
L 306.602869 112.272929 
L 309.767228 107.49699 
L 312.931587 103.26928 
L 316.095946 99.550109 
L 319.260305 96.301209 
L 322.424663 93.489717 
L 325.589022 91.089673 
L 328.753381 89.082544 
L 331.91774 87.457502 
L 335.082099 86.211872 
L 338.246458 85.351987 
L 341.410817 84.894767 
L 342.992996 84.825966 
L 344.575175 84.870404 
L 346.157355 85.034669 
L 347.739534 85.326901 
L 349.321714 85.757138 
L 350.903893 86.337787 
L 352.486073 87.084246 
L 354.068252 88.015783 
L 355.650431 89.156769 
L 357.232611 90.538459 
L 358.81479 92.201658 
L 360.39697 94.20083 
L 361.979149 96.610703 
L 363.561329 99.537478 
L 365.143508 103.13905 
L 366.725687 107.666049 
L 368.307867 113.569399 
L 369.890046 121.660436 
L 371.472226 133.828876 
L 373.054405 156.851525 
L 374.636585 198.574196 
L 376.218764 143.996324 
L 377.800943 125.403185 
L 379.383123 113.753715 
L 380.965302 105.204245 
L 382.547482 98.431779 
L 384.129661 92.820329 
L 385.711841 88.032213 
L 387.29402 83.861963 
L 388.8762 80.175102 
L 390.458379 76.878746 
L 392.040558 73.906026 
L 393.622738 71.207197 
L 395.204917 68.744271 
L 398.369276 64.413651 
L 401.533635 60.741522 
L 404.697994 57.6138 
L 407.862353 54.952449 
L 411.026712 52.703275 
L 414.19107 50.828931 
L 417.355429 49.304818 
L 420.519788 48.116737 
L 423.684147 47.259719 
L 426.848506 46.737802 
L 430.012865 46.564683 
L 433.177224 46.765434 
L 436.341582 47.379665 
L 437.923762 47.85947 
L 439.505941 48.467015 
L 441.088121 49.214436 
L 442.6703 50.116677 
L 444.25248 51.192305 
L 445.834659 52.464635 
L 447.416838 53.96337 
L 448.999018 55.727013 
L 450.581197 57.80656 
L 452.163377 60.271385 
L 453.745556 63.219071 
L 455.327736 66.792882 
L 456.909915 71.215302 
L 458.492094 76.859489 
L 460.074274 84.425506 
L 461.656453 95.485712 
L 463.238633 115.058515 
L 463.244156 351.889687 
L 463.244156 351.889687 
" clip-path="url(#p3388b89d93)" style="fill: none; stroke-dasharray: 5.55,2.4; stroke-dashoffset: 0; stroke: #d62728; stroke-width: 1.5"/>
   </g>
   <g id="line2d_58">
    <path d="M 70.858134 50.175916 
L 75.604672 56.127164 
L 80.35121 62.558671 
L 83.515569 67.154147 
L 86.679928 72.030913 
L 89.844287 77.225236 
L 93.008646 82.780285 
L 96.173005 88.747615 
L 99.337364 95.188756 
L 102.501723 102.176508 
L 105.666081 109.794747 
L 108.83044 118.133571 
L 111.994799 127.271381 
L 115.159158 137.222211 
L 121.487876 158.278677 
L 123.070055 162.990251 
L 124.652235 166.925058 
L 126.234414 169.711899 
L 127.816593 171.046812 
L 129.398773 170.810847 
L 130.980952 169.124375 
L 132.563132 166.292534 
L 134.145311 162.687408 
L 137.30967 154.431198 
L 140.474029 146.105681 
L 143.638388 138.432524 
L 146.802747 131.609236 
L 149.967105 125.630544 
L 153.131464 120.427886 
L 156.295823 115.922291 
L 159.460182 112.042637 
L 162.624541 108.730964 
L 165.7889 105.943289 
L 168.953259 103.649167 
L 172.117617 101.821676 
L 175.281976 100.395429 
L 178.446335 99.30821 
L 181.610694 98.515455 
L 184.775053 97.984973 
L 187.939412 97.69365 
L 191.103771 97.62536 
L 194.26813 97.769654 
L 197.432488 98.120961 
L 200.596847 98.678197 
L 203.761206 99.444687 
L 206.925565 100.428418 
L 210.089924 101.642644 
L 213.254283 103.106944 
L 216.418642 104.848933 
L 219.583 106.906941 
L 222.747359 109.334292 
L 225.911718 112.206337 
L 229.076077 115.63254 
L 230.658256 117.602079 
L 232.240436 119.77863 
L 233.822615 122.19883 
L 235.404795 124.910773 
L 236.986974 127.979272 
L 238.569154 131.494551 
L 240.151333 135.587442 
L 241.733512 140.457995 
L 243.315692 146.434786 
L 244.897871 154.115584 
L 246.480051 164.775955 
L 248.06223 182.063472 
L 249.64441 231.158602 
L 251.226589 195.476238 
L 252.808768 170.598561 
L 254.390948 157.109184 
L 255.973127 147.754987 
L 257.555307 140.562636 
L 259.137486 134.703491 
L 260.719666 129.750144 
L 262.301845 125.452999 
L 263.884024 121.653524 
L 265.466204 118.244694 
L 267.048383 115.150832 
L 270.212742 109.702439 
L 273.377101 105.02653 
L 276.54146 100.955339 
L 279.705819 97.375087 
L 282.870178 94.205041 
L 286.034537 91.385984 
L 289.198895 88.873394 
L 292.363254 86.633201 
L 295.527613 84.639045 
L 298.691972 82.870444 
L 301.856331 81.311548 
L 305.02069 79.950279 
L 308.185049 78.777747 
L 311.349407 77.787856 
L 314.513766 76.977075 
L 317.678125 76.344328 
L 320.842484 75.891015 
L 324.006843 75.62115 
L 327.171202 75.541643 
L 330.335561 75.662759 
L 333.499919 75.998813 
L 336.664278 76.569192 
L 339.828637 77.399873 
L 342.992996 78.525705 
L 346.157355 79.993922 
L 349.321714 81.869739 
L 350.903893 82.987974 
L 352.486073 84.245709 
L 354.068252 85.66147 
L 355.650431 87.258261 
L 357.232611 89.065095 
L 358.81479 91.119248 
L 360.39697 93.469688 
L 361.979149 96.182477 
L 363.561329 99.349734 
L 365.143508 103.105353 
L 366.725687 107.654686 
L 368.307867 113.327994 
L 369.890046 120.706227 
L 371.472226 131.018022 
L 373.054405 147.71953 
L 374.636585 192.780612 
L 376.218764 163.566514 
L 377.800943 137.68333 
L 379.383123 123.905114 
L 380.965302 114.426538 
L 382.547482 107.186898 
L 384.129661 101.3307 
L 385.711841 96.419418 
L 387.29402 92.197978 
L 388.8762 88.504832 
L 390.458379 85.231185 
L 392.040558 82.300284 
L 393.622738 79.65599 
L 395.204917 77.256031 
L 398.369276 73.065785 
L 401.533635 69.542373 
L 404.697994 66.564282 
L 407.862353 64.04958 
L 411.026712 61.942048 
L 414.19107 60.203347 
L 417.355429 58.808474 
L 420.519788 57.743159 
L 423.684147 57.002559 
L 426.848506 56.590941 
L 430.012865 56.522291 
L 433.177224 56.821994 
L 436.341582 57.529979 
L 437.923762 58.054811 
L 439.505941 58.706201 
L 441.088121 59.496323 
L 442.6703 60.440158 
L 444.25248 61.556306 
L 445.834659 62.86812 
L 447.416838 64.405336 
L 448.999018 66.206487 
L 450.581197 68.322602 
L 452.163377 70.823086 
L 453.745556 73.80555 
L 455.327736 77.413286 
L 456.909915 81.868806 
L 458.492094 87.545294 
L 460.074274 95.142837 
L 461.656453 106.233821 
L 463.238633 125.836675 
L 463.243906 351.889687 
L 463.243906 351.889687 
" clip-path="url(#p3388b89d93)" style="fill: none; stroke-dasharray: 9.6,2.4,1.5,2.4; stroke-dashoffset: 0; stroke: #9467bd; stroke-width: 1.5"/>
   </g>
   <g id="patch_3">
    <path d="M 51.16 314.897812 
L 51.16 23.837812 
" style="fill: none; stroke: #cccccc; stroke-linejoin: miter; stroke-linecap: square"/>
   </g>
   <g id="patch_4">
    <path d="M 484.518946 314.897812 
L 484.518946 23.837812 
" style="fill: none; stroke: #cccccc; stroke-linejoin: miter; stroke-linecap: square"/>
   </g>
   <g id="patch_5">
    <path d="M 51.16 314.897812 
L 484.518946 314.897812 
" style="fill: none; stroke: #cccccc; stroke-linejoin: miter; stroke-linecap: square"/>
   </g>
   <g id="patch_6">
    <path d="M 51.16 23.837812 
L 484.518946 23.837812 
" style="fill: none; stroke: #cccccc; stroke-linejoin: miter; stroke-linecap: square"/>
   </g>
   <g id="text_13">
    <!-- Solution Error (log scale) -->
    <g style="fill: #262626" transform="translate(181.419004 17.837812) scale(0.14 -0.14)">
     <defs>
      <path id="DejaVuSans-53" d="M 3425 4513 
L 3425 3897 
Q 3066 4069 2747 4153 
Q 2428 4238 2131 4238 
Q 1616 4238 1336 4038 
Q 1056 3838 1056 3469 
Q 1056 3159 1242 3001 
Q 1428 2844 1947 2747 
L 2328 2669 
Q 3034 2534 3370 2195 
Q 3706 1856 3706 1288 
Q 3706 609 3251 259 
Q 2797 -91 1919 -91 
Q 1588 -91 1214 -16 
Q 841 59 441 206 
L 441 856 
Q 825 641 1194 531 
Q 1563 422 1919 422 
Q 2459 422 2753 634 
Q 3047 847 3047 1241 
Q 3047 1584 2836 1778 
Q 2625 1972 2144 2069 
L 1759 2144 
Q 1053 2284 737 2584 
Q 422 2884 422 3419 
Q 422 4038 858 4394 
Q 1294 4750 2059 4750 
Q 2388 4750 2728 4690 
Q 3069 4631 3425 4513 
z
" transform="scale(0.015625)"/>
      <path id="DejaVuSans-6f" d="M 1959 3097 
Q 1497 3097 1228 2736 
Q 959 2375 959 1747 
Q 959 1119 1226 758 
Q 1494 397 1959 397 
Q 2419 397 2687 759 
Q 2956 1122 2956 1747 
Q 2956 2369 2687 2733 
Q 2419 3097 1959 3097 
z
M 1959 3584 
Q 2709 3584 3137 3096 
Q 3566 2609 3566 1747 
Q 3566 888 3137 398 
Q 2709 -91 1959 -91 
Q 1206 -91 779 398 
Q 353 888 353 1747 
Q 353 2609 779 3096 
Q 1206 3584 1959 3584 
z
" transform="scale(0.015625)"/>
      <path id="DejaVuSans-6c" d="M 603 4863 
L 1178 4863 
L 1178 0 
L 603 0 
L 603 4863 
z
" transform="scale(0.015625)"/>
      <path id="DejaVuSans-75" d="M 544 1381 
L 544 3500 
L 1119 3500 
L 1119 1403 
Q 1119 906 1312 657 
Q 1506 409 1894 409 
Q 2359 409 2629 706 
Q 2900 1003 2900 1516 
L 2900 3500 
L 3475 3500 
L 3475 0 
L 2900 0 
L 2900 538 
Q 2691 219 2414 64 
Q 2138 -91 1772 -91 
Q 1169 -91 856 284 
Q 544 659 544 1381 
z
M 1991 3584 
L 1991 3584 
z
" transform="scale(0.015625)"/>
      <path id="DejaVuSans-74" d="M 1172 4494 
L 1172 3500 
L 2356 3500 
L 2356 3053 
L 1172 3053 
L 1172 1153 
Q 1172 725 1289 603 
Q 1406 481 1766 481 
L 2356 481 
L 2356 0 
L 1766 0 
Q 1100 0 847 248 
Q 594 497 594 1153 
L 594 3053 
L 172 3053 
L 172 3500 
L 594 3500 
L 594 4494 
L 1172 4494 
z
" transform="scale(0.015625)"/>
      <path id="DejaVuSans-69" d="M 603 3500 
L 1178 3500 
L 1178 0 
L 603 0 
L 603 3500 
z
M 603 4863 
L 1178 4863 
L 1178 4134 
L 603 4134 
L 603 4863 
z
" transform="scale(0.015625)"/>
      <path id="DejaVuSans-6e" d="M 3513 2113 
L 3513 0 
L 2938 0 
L 2938 2094 
Q 2938 2591 2744 2837 
Q 2550 3084 2163 3084 
Q 1697 3084 1428 2787 
Q 1159 2491 1159 1978 
L 1159 0 
L 581 0 
L 581 3500 
L 1159 3500 
L 1159 2956 
Q 1366 3272 1645 3428 
Q 1925 3584 2291 3584 
Q 2894 3584 3203 3211 
Q 3513 2838 3513 2113 
z
" transform="scale(0.015625)"/>
      <path id="DejaVuSans-20" transform="scale(0.015625)"/>
      <path id="DejaVuSans-45" d="M 628 4666 
L 3578 4666 
L 3578 4134 
L 1259 4134 
L 1259 2753 
L 3481 2753 
L 3481 2222 
L 1259 2222 
L 1259 531 
L 3634 531 
L 3634 0 
L 628 0 
L 628 4666 
z
" transform="scale(0.015625)"/>
      <path id="DejaVuSans-72" d="M 2631 2963 
Q 2534 3019 2420 3045 
Q 2306 3072 2169 3072 
Q 1681 3072 1420 2755 
Q 1159 2438 1159 1844 
L 1159 0 
L 581 0 
L 581 3500 
L 1159 3500 
L 1159 2956 
Q 1341 3275 1631 3429 
Q 1922 3584 2338 3584 
Q 2397 3584 2469 3576 
Q 2541 3569 2628 3553 
L 2631 2963 
z
" transform="scale(0.015625)"/>
      <path id="DejaVuSans-67" d="M 2906 1791 
Q 2906 2416 2648 2759 
Q 2391 3103 1925 3103 
Q 1463 3103 1205 2759 
Q 947 2416 947 1791 
Q 947 1169 1205 825 
Q 1463 481 1925 481 
Q 2391 481 2648 825 
Q 2906 1169 2906 1791 
z
M 3481 434 
Q 3481 -459 3084 -895 
Q 2688 -1331 1869 -1331 
Q 1566 -1331 1297 -1286 
Q 1028 -1241 775 -1147 
L 775 -588 
Q 1028 -725 1275 -790 
Q 1522 -856 1778 -856 
Q 2344 -856 2625 -561 
Q 2906 -266 2906 331 
L 2906 616 
Q 2728 306 2450 153 
Q 2172 0 1784 0 
Q 1141 0 747 490 
Q 353 981 353 1791 
Q 353 2603 747 3093 
Q 1141 3584 1784 3584 
Q 2172 3584 2450 3431 
Q 2728 3278 2906 2969 
L 2906 3500 
L 3481 3500 
L 3481 434 
z
" transform="scale(0.015625)"/>
      <path id="DejaVuSans-73" d="M 2834 3397 
L 2834 2853 
Q 2591 2978 2328 3040 
Q 2066 3103 1784 3103 
Q 1356 3103 1142 2972 
Q 928 2841 928 2578 
Q 928 2378 1081 2264 
Q 1234 2150 1697 2047 
L 1894 2003 
Q 2506 1872 2764 1633 
Q 3022 1394 3022 966 
Q 3022 478 2636 193 
Q 2250 -91 1575 -91 
Q 1294 -91 989 -36 
Q 684 19 347 128 
L 347 722 
Q 666 556 975 473 
Q 1284 391 1588 391 
Q 1994 391 2212 530 
Q 2431 669 2431 922 
Q 2431 1156 2273 1281 
Q 2116 1406 1581 1522 
L 1381 1569 
Q 847 1681 609 1914 
Q 372 2147 372 2553 
Q 372 3047 722 3315 
Q 1072 3584 1716 3584 
Q 2034 3584 2315 3537 
Q 2597 3491 2834 3397 
z
" transform="scale(0.015625)"/>
      <path id="DejaVuSans-63" d="M 3122 3366 
L 3122 2828 
Q 2878 2963 2633 3030 
Q 2388 3097 2138 3097 
Q 1578 3097 1268 2742 
Q 959 2388 959 1747 
Q 959 1106 1268 751 
Q 1578 397 2138 397 
Q 2388 397 2633 464 
Q 2878 531 3122 666 
L 3122 134 
Q 2881 22 2623 -34 
Q 2366 -91 2075 -91 
Q 1284 -91 818 406 
Q 353 903 353 1747 
Q 353 2603 823 3093 
Q 1294 3584 2113 3584 
Q 2378 3584 2631 3529 
Q 2884 3475 3122 3366 
z
" transform="scale(0.015625)"/>
      <path id="DejaVuSans-61" d="M 2194 1759 
Q 1497 1759 1228 1600 
Q 959 1441 959 1056 
Q 959 750 1161 570 
Q 1363 391 1709 391 
Q 2188 391 2477 730 
Q 2766 1069 2766 1631 
L 2766 1759 
L 2194 1759 
z
M 3341 1997 
L 3341 0 
L 2766 0 
L 2766 531 
Q 2569 213 2275 61 
Q 1981 -91 1556 -91 
Q 1019 -91 701 211 
Q 384 513 384 1019 
Q 384 1609 779 1909 
Q 1175 2209 1959 2209 
L 2766 2209 
L 2766 2266 
Q 2766 2663 2505 2880 
Q 2244 3097 1772 3097 
Q 1472 3097 1187 3025 
Q 903 2953 641 2809 
L 641 3341 
Q 956 3463 1253 3523 
Q 1550 3584 1831 3584 
Q 2591 3584 2966 3190 
Q 3341 2797 3341 1997 
z
" transform="scale(0.015625)"/>
      <path id="DejaVuSans-65" d="M 3597 1894 
L 3597 1613 
L 953 1613 
Q 991 1019 1311 708 
Q 1631 397 2203 397 
Q 2534 397 2845 478 
Q 3156 559 3463 722 
L 3463 178 
Q 3153 47 2828 -22 
Q 2503 -91 2169 -91 
Q 1331 -91 842 396 
Q 353 884 353 1716 
Q 353 2575 817 3079 
Q 1281 3584 2069 3584 
Q 2775 3584 3186 3129 
Q 3597 2675 3597 1894 
z
M 3022 2063 
Q 3016 2534 2758 2815 
Q 2500 3097 2075 3097 
Q 1594 3097 1305 2825 
Q 1016 2553 972 2059 
L 3022 2063 
z
" transform="scale(0.015625)"/>
     </defs>
     <use xlink:href="#DejaVuSans-53"/>
     <use xlink:href="#DejaVuSans-6f" transform="translate(63.476562 0)"/>
     <use xlink:href="#DejaVuSans-6c" transform="translate(124.658203 0)"/>
     <use xlink:href="#DejaVuSans-75" transform="translate(152.441406 0)"/>
     <use xlink:href="#DejaVuSans-74" transform="translate(215.820312 0)"/>
     <use xlink:href="#DejaVuSans-69" transform="translate(255.029297 0)"/>
     <use xlink:href="#DejaVuSans-6f" transform="translate(282.8125 0)"/>
     <use xlink:href="#DejaVuSans-6e" transform="translate(343.994141 0)"/>
     <use xlink:href="#DejaVuSans-20" transform="translate(407.373047 0)"/>
     <use xlink:href="#DejaVuSans-45" transform="translate(439.160156 0)"/>
     <use xlink:href="#DejaVuSans-72" transform="translate(502.34375 0)"/>
     <use xlink:href="#DejaVuSans-72" transform="translate(541.707031 0)"/>
     <use xlink:href="#DejaVuSans-6f" transform="translate(580.570312 0)"/>
     <use xlink:href="#DejaVuSans-72" transform="translate(641.751953 0)"/>
     <use xlink:href="#DejaVuSans-20" transform="translate(682.865234 0)"/>
     <use xlink:href="#DejaVuSans-28" transform="translate(714.652344 0)"/>
     <use xlink:href="#DejaVuSans-6c" transform="translate(753.666016 0)"/>
     <use xlink:href="#DejaVuSans-6f" transform="translate(781.449219 0)"/>
     <use xlink:href="#DejaVuSans-67" transform="translate(842.630859 0)"/>
     <use xlink:href="#DejaVuSans-20" transform="translate(906.107422 0)"/>
     <use xlink:href="#DejaVuSans-73" transform="translate(937.894531 0)"/>
     <use xlink:href="#DejaVuSans-63" transform="translate(989.994141 0)"/>
     <use xlink:href="#DejaVuSans-61" transform="translate(1044.974609 0)"/>
     <use xlink:href="#DejaVuSans-6c" transform="translate(1106.253906 0)"/>
     <use xlink:href="#DejaVuSans-65" transform="translate(1134.037109 0)"/>
     <use xlink:href="#DejaVuSans-29" transform="translate(1195.560547 0)"/>
    </g>
   </g>
   <g id="legend_1">
    <g id="patch_7">
     <path d="M 211.089473 309.897812 
L 324.589473 309.897812 
L 324.589473 246.663437 
L 211.089473 246.663437 
z
" style="fill: #ffffff; stroke: #000000; stroke-linejoin: miter"/>
    </g>
    <g id="line2d_59">
     <path d="M 215.089473 254.761875 
L 225.089473 254.761875 
L 235.089473 254.761875 
" style="fill: none; stroke: #ff7f0e; stroke-width: 1.5; stroke-linecap: round"/>
    </g>
    <g id="text_14">
     <!-- Method -->
     <g style="fill: #262626" transform="translate(243.089473 258.261875) scale(0.1 -0.1)">
      <defs>
       <path id="DejaVuSans-4d" d="M 628 4666 
L 1569 4666 
L 2759 1491 
L 3956 4666 
L 4897 4666 
L 4897 0 
L 4281 0 
L 4281 4097 
L 3078 897 
L 2444 897 
L 1241 4097 
L 1241 0 
L 628 0 
L 628 4666 
z
" transform="scale(0.015625)"/>
       <path id="DejaVuSans-68" d="M 3513 2113 
L 3513 0 
L 2938 0 
L 2938 2094 
Q 2938 2591 2744 2837 
Q 2550 3084 2163 3084 
Q 1697 3084 1428 2787 
Q 1159 2491 1159 1978 
L 1159 0 
L 581 0 
L 581 4863 
L 1159 4863 
L 1159 2956 
Q 1366 3272 1645 3428 
Q 1925 3584 2291 3584 
Q 2894 3584 3203 3211 
Q 3513 2838 3513 2113 
z
" transform="scale(0.015625)"/>
       <path id="DejaVuSans-64" d="M 2906 2969 
L 2906 4863 
L 3481 4863 
L 3481 0 
L 2906 0 
L 2906 525 
Q 2725 213 2448 61 
Q 2172 -91 1784 -91 
Q 1150 -91 751 415 
Q 353 922 353 1747 
Q 353 2572 751 3078 
Q 1150 3584 1784 3584 
Q 2172 3584 2448 3432 
Q 2725 3281 2906 2969 
z
M 947 1747 
Q 947 1113 1208 752 
Q 1469 391 1925 391 
Q 2381 391 2643 752 
Q 2906 1113 2906 1747 
Q 2906 2381 2643 2742 
Q 2381 3103 1925 3103 
Q 1469 3103 1208 2742 
Q 947 2381 947 1747 
z
" transform="scale(0.015625)"/>
      </defs>
      <use xlink:href="#DejaVuSans-4d"/>
      <use xlink:href="#DejaVuSans-65" transform="translate(86.279297 0)"/>
      <use xlink:href="#DejaVuSans-74" transform="translate(147.802734 0)"/>
      <use xlink:href="#DejaVuSans-68" transform="translate(187.011719 0)"/>
      <use xlink:href="#DejaVuSans-6f" transform="translate(250.390625 0)"/>
      <use xlink:href="#DejaVuSans-64" transform="translate(311.572266 0)"/>
     </g>
    </g>
    <g id="line2d_60">
     <path d="M 215.089473 269.44 
L 225.089473 269.44 
L 235.089473 269.44 
" style="fill: none; stroke: #2ca02c; stroke-width: 1.5; stroke-linecap: round"/>
    </g>
    <g id="text_15">
     <!-- Linear $C^0$ -->
     <g style="fill: #262626" transform="translate(243.089473 272.94) scale(0.1 -0.1)">
      <defs>
       <path id="DejaVuSans-4c" d="M 628 4666 
L 1259 4666 
L 1259 531 
L 3531 531 
L 3531 0 
L 628 0 
L 628 4666 
z
" transform="scale(0.015625)"/>
       <path id="DejaVuSans-Oblique-43" d="M 4447 4306 
L 4319 3641 
Q 4019 3944 3683 4091 
Q 3347 4238 2956 4238 
Q 2422 4238 2017 3981 
Q 1613 3725 1319 3200 
Q 1131 2863 1032 2486 
Q 934 2109 934 1728 
Q 934 1091 1264 756 
Q 1594 422 2222 422 
Q 2656 422 3056 561 
Q 3456 700 3834 978 
L 3688 231 
Q 3316 72 2936 -9 
Q 2556 -91 2175 -91 
Q 1278 -91 773 396 
Q 269 884 269 1753 
Q 269 2309 461 2846 
Q 653 3384 1013 3828 
Q 1394 4300 1883 4525 
Q 2372 4750 3022 4750 
Q 3422 4750 3780 4639 
Q 4138 4528 4447 4306 
z
" transform="scale(0.015625)"/>
      </defs>
      <use xlink:href="#DejaVuSans-4c" transform="translate(0 0.765625)"/>
      <use xlink:href="#DejaVuSans-69" transform="translate(55.712891 0.765625)"/>
      <use xlink:href="#DejaVuSans-6e" transform="translate(83.496094 0.765625)"/>
      <use xlink:href="#DejaVuSans-65" transform="translate(146.875 0.765625)"/>
      <use xlink:href="#DejaVuSans-61" transform="translate(208.398438 0.765625)"/>
      <use xlink:href="#DejaVuSans-72" transform="translate(269.677734 0.765625)"/>
      <use xlink:href="#DejaVuSans-20" transform="translate(310.791016 0.765625)"/>
      <use xlink:href="#DejaVuSans-Oblique-43" transform="translate(342.578125 0.765625)"/>
      <use xlink:href="#DejaVuSans-30" transform="translate(419.602865 39.046875) scale(0.7)"/>
     </g>
    </g>
    <g id="line2d_61">
     <path d="M 215.089473 284.118125 
L 225.089473 284.118125 
L 235.089473 284.118125 
" style="fill: none; stroke-dasharray: 5.55,2.4; stroke-dashoffset: 0; stroke: #d62728; stroke-width: 1.5"/>
    </g>
    <g id="text_16">
     <!-- Hermite $C^1$ -->
     <g style="fill: #262626" transform="translate(243.089473 287.618125) scale(0.1 -0.1)">
      <defs>
       <path id="DejaVuSans-48" d="M 628 4666 
L 1259 4666 
L 1259 2753 
L 3553 2753 
L 3553 4666 
L 4184 4666 
L 4184 0 
L 3553 0 
L 3553 2222 
L 1259 2222 
L 1259 0 
L 628 0 
L 628 4666 
z
" transform="scale(0.015625)"/>
       <path id="DejaVuSans-6d" d="M 3328 2828 
Q 3544 3216 3844 3400 
Q 4144 3584 4550 3584 
Q 5097 3584 5394 3201 
Q 5691 2819 5691 2113 
L 5691 0 
L 5113 0 
L 5113 2094 
Q 5113 2597 4934 2840 
Q 4756 3084 4391 3084 
Q 3944 3084 3684 2787 
Q 3425 2491 3425 1978 
L 3425 0 
L 2847 0 
L 2847 2094 
Q 2847 2600 2669 2842 
Q 2491 3084 2119 3084 
Q 1678 3084 1418 2786 
Q 1159 2488 1159 1978 
L 1159 0 
L 581 0 
L 581 3500 
L 1159 3500 
L 1159 2956 
Q 1356 3278 1631 3431 
Q 1906 3584 2284 3584 
Q 2666 3584 2933 3390 
Q 3200 3197 3328 2828 
z
" transform="scale(0.015625)"/>
      </defs>
      <use xlink:href="#DejaVuSans-48" transform="translate(0 0.684375)"/>
      <use xlink:href="#DejaVuSans-65" transform="translate(75.195312 0.684375)"/>
      <use xlink:href="#DejaVuSans-72" transform="translate(136.71875 0.684375)"/>
      <use xlink:href="#DejaVuSans-6d" transform="translate(177.832031 0.684375)"/>
      <use xlink:href="#DejaVuSans-69" transform="translate(275.244141 0.684375)"/>
      <use xlink:href="#DejaVuSans-74" transform="translate(303.027344 0.684375)"/>
      <use xlink:href="#DejaVuSans-65" transform="translate(342.236328 0.684375)"/>
      <use xlink:href="#DejaVuSans-20" transform="translate(403.759766 0.684375)"/>
      <use xlink:href="#DejaVuSans-Oblique-43" transform="translate(435.546875 0.684375)"/>
      <use xlink:href="#DejaVuSans-31" transform="translate(512.571615 38.965625) scale(0.7)"/>
     </g>
    </g>
    <g id="line2d_62">
     <path d="M 215.089473 300.297812 
L 225.089473 300.297812 
L 235.089473 300.297812 
" style="fill: none; stroke-dasharray: 9.6,2.4,1.5,2.4; stroke-dashoffset: 0; stroke: #9467bd; stroke-width: 1.5"/>
    </g>
    <g id="text_17">
     <!-- Cubic Spline $C^2$ -->
     <g style="fill: #262626" transform="translate(243.089473 303.797812) scale(0.1 -0.1)">
      <defs>
       <path id="DejaVuSans-43" d="M 4122 4306 
L 4122 3641 
Q 3803 3938 3442 4084 
Q 3081 4231 2675 4231 
Q 1875 4231 1450 3742 
Q 1025 3253 1025 2328 
Q 1025 1406 1450 917 
Q 1875 428 2675 428 
Q 3081 428 3442 575 
Q 3803 722 4122 1019 
L 4122 359 
Q 3791 134 3420 21 
Q 3050 -91 2638 -91 
Q 1578 -91 968 557 
Q 359 1206 359 2328 
Q 359 3453 968 4101 
Q 1578 4750 2638 4750 
Q 3056 4750 3426 4639 
Q 3797 4528 4122 4306 
z
" transform="scale(0.015625)"/>
       <path id="DejaVuSans-62" d="M 3116 1747 
Q 3116 2381 2855 2742 
Q 2594 3103 2138 3103 
Q 1681 3103 1420 2742 
Q 1159 2381 1159 1747 
Q 1159 1113 1420 752 
Q 1681 391 2138 391 
Q 2594 391 2855 752 
Q 3116 1113 3116 1747 
z
M 1159 2969 
Q 1341 3281 1617 3432 
Q 1894 3584 2278 3584 
Q 2916 3584 3314 3078 
Q 3713 2572 3713 1747 
Q 3713 922 3314 415 
Q 2916 -91 2278 -91 
Q 1894 -91 1617 61 
Q 1341 213 1159 525 
L 1159 0 
L 581 0 
L 581 4863 
L 1159 4863 
L 1159 2969 
z
" transform="scale(0.015625)"/>
       <path id="DejaVuSans-70" d="M 1159 525 
L 1159 -1331 
L 581 -1331 
L 581 3500 
L 1159 3500 
L 1159 2969 
Q 1341 3281 1617 3432 
Q 1894 3584 2278 3584 
Q 2916 3584 3314 3078 
Q 3713 2572 3713 1747 
Q 3713 922 3314 415 
Q 2916 -91 2278 -91 
Q 1894 -91 1617 61 
Q 1341 213 1159 525 
z
M 3116 1747 
Q 3116 2381 2855 2742 
Q 2594 3103 2138 3103 
Q 1681 3103 1420 2742 
Q 1159 2381 1159 1747 
Q 1159 1113 1420 752 
Q 1681 391 2138 391 
Q 2594 391 2855 752 
Q 3116 1113 3116 1747 
z
" transform="scale(0.015625)"/>
      </defs>
      <use xlink:href="#DejaVuSans-43" transform="translate(0 0.765625)"/>
      <use xlink:href="#DejaVuSans-75" transform="translate(69.824219 0.765625)"/>
      <use xlink:href="#DejaVuSans-62" transform="translate(133.203125 0.765625)"/>
      <use xlink:href="#DejaVuSans-69" transform="translate(196.679688 0.765625)"/>
      <use xlink:href="#DejaVuSans-63" transform="translate(224.462891 0.765625)"/>
      <use xlink:href="#DejaVuSans-20" transform="translate(279.443359 0.765625)"/>
      <use xlink:href="#DejaVuSans-53" transform="translate(311.230469 0.765625)"/>
      <use xlink:href="#DejaVuSans-70" transform="translate(374.707031 0.765625)"/>
      <use xlink:href="#DejaVuSans-6c" transform="translate(438.183594 0.765625)"/>
      <use xlink:href="#DejaVuSans-69" transform="translate(465.966797 0.765625)"/>
      <use xlink:href="#DejaVuSans-6e" transform="translate(493.75 0.765625)"/>
      <use xlink:href="#DejaVuSans-65" transform="translate(557.128906 0.765625)"/>
      <use xlink:href="#DejaVuSans-20" transform="translate(618.652344 0.765625)"/>
      <use xlink:href="#DejaVuSans-Oblique-43" transform="translate(650.439453 0.765625)"/>
      <use xlink:href="#DejaVuSans-32" transform="translate(727.464193 39.046875) scale(0.7)"/>
     </g>
    </g>
   </g>
  </g>
 </g>
 <defs>
  <clipPath id="p3388b89d93">
   <rect x="51.16" y="23.837812" width="433.358946" height="291.06"/>
  </clipPath>
 </defs>
</svg>
